<svg width="255" height="182" viewBox="0 0 255 182" fill="none" xmlns="http://www.w3.org/2000/svg">
<g filter="url(#filter0_d_101_86)">
<rect x="30" y="30" width="195" height="122" rx="10" fill="white"/>
</g>
<mask id="path-2-inside-1_101_86" fill="white">
<path d="M215.023 68.1462L224.823 56.2158C224.882 56.1433 225 56.1854 225 56.2793V125.721C225 125.815 224.882 125.857 224.823 125.784L215.023 113.854C215.008 113.836 215 113.813 215 113.79V68.2097C215 68.1866 215.008 68.1641 215.023 68.1462Z"/>
</mask>
<path d="M224.823 56.2158L240.277 68.9106V68.9106L224.823 56.2158ZM215.023 68.1462L230.477 80.8412L230.477 80.841L215.023 68.1462ZM215.023 113.854L230.477 101.159L230.476 101.158L215.023 113.854ZM224.823 125.784L209.368 138.479L209.369 138.479L224.823 125.784ZM209.368 43.521L199.568 55.4515L230.477 80.841L240.277 68.9106L209.368 43.521ZM195 68.2097V113.79H235V68.2097H195ZM199.568 126.549L209.368 138.479L240.277 113.089L230.477 101.159L199.568 126.549ZM245 125.721V56.2793H205V125.721H245ZM209.369 138.479C221.345 153.058 245 144.593 245 125.721H205C205 107.036 228.42 98.655 240.277 113.089L209.369 138.479ZM195 113.79C195 118.443 196.614 122.953 199.569 126.549L230.476 101.158C233.402 104.719 235 109.184 235 113.79H195ZM199.568 55.4513C196.615 59.0472 195 63.5564 195 68.2097H235C235 72.8167 233.402 77.2811 230.477 80.8412L199.568 55.4513ZM240.277 68.9106C228.419 83.3466 205 74.9623 205 56.2793H245C245 37.4085 221.345 28.94 209.368 43.521L240.277 68.9106Z" fill="#CCCCCC" mask="url(#path-2-inside-1_101_86)"/>
<rect x="50" y="110" width="45" height="8" fill="#C4C4C4"/>
<rect x="101" y="110" width="45" height="8" fill="#C4C4C4"/>
<rect x="152" y="110" width="29" height="8" fill="#C4C4C4"/>
<rect x="130" y="125" width="51" height="8" fill="#C4C4C4"/>
<rect x="50" y="125" width="74" height="8" fill="#C4C4C4"/>
<path fill-rule="evenodd" clip-rule="evenodd" d="M95.5927 57.5889C94.6723 57.5889 94.2028 58.193 94.1293 58.2845C93.8897 57.8455 93.4667 57.5889 92.9056 57.5889C92.0962 57.5889 91.6358 58.0559 91.5615 58.1381C91.5256 58.01 91.3595 57.6714 90.8348 57.6714C90.6879 57.6714 90.467 57.7173 90.4485 57.7173C90.467 57.8178 90.5682 58.2936 90.5682 58.9524C90.5682 59.3644 90.5682 61.8444 90.5682 61.8444H91.6357V58.8976C91.6535 58.8792 92.0503 58.4765 92.5278 58.4765C93.0163 58.4765 93.2462 58.8335 93.2462 59.3185V61.8443H94.3133V58.8975C94.3411 58.8703 94.7274 58.4764 95.215 58.4764C95.7026 58.4764 95.9232 58.8334 95.9232 59.3184V61.8442H97.0001V59.1537C97.0002 58.2023 96.4574 57.5889 95.5927 57.5889ZM83.9159 61.0757C83.1889 61.0757 82.6741 60.5082 82.6741 59.767C82.6741 58.9433 83.2625 58.4494 83.9159 58.4494C84.2655 58.4494 84.4128 58.5502 84.6433 58.5502C84.8912 58.5502 85.0292 58.4307 85.149 58.1929C85.2225 58.0655 85.2598 57.9824 85.2598 57.9824C85.2041 57.9547 84.6709 57.5888 83.7505 57.5888C82.4067 57.5888 81.6066 58.5501 81.6066 59.767C81.6066 61.1032 82.5271 61.9355 83.7505 61.9355C84.6434 61.9355 85.1766 61.579 85.2776 61.5058L84.9097 60.7831C84.8271 60.8377 84.44 61.0757 83.9159 61.0757ZM72.2305 57.5889C71.2091 57.5889 70.3532 58.4127 70.3532 59.7671C70.3532 61.1492 71.1908 61.9356 72.4331 61.9356C73.4265 61.9356 73.9415 61.5059 74.0062 61.4689C74.0062 61.4689 73.9051 61.3136 73.8777 61.268C73.7393 61.0388 73.5832 60.966 73.4081 60.966C73.0584 60.966 73.0128 61.1122 72.534 61.1122C71.7152 61.1122 71.4298 60.481 71.4114 60.0603H74.1439C74.1439 59.9499 74.1439 59.8037 74.1439 59.7398C74.1439 58.4494 73.3992 57.5889 72.2305 57.5889ZM71.4114 59.3C71.4114 58.8248 71.7425 58.3852 72.221 58.3852C72.7454 58.3852 73.0309 58.8425 73.0398 59.3H71.4114ZM75.966 60.6733V56.3355C75.966 55.8505 75.6437 55.4752 75.1286 55.4752C75.1009 55.4752 74.9079 55.4752 74.9079 55.4752V61.0941C74.9079 61.6158 75.2297 61.9355 75.7916 61.9355C76.4815 61.9355 76.6839 61.4508 76.6839 60.9844C76.6563 61.0024 76.5088 61.0578 76.3616 61.0578C76.1135 61.0578 75.966 60.9202 75.966 60.6733ZM68.844 60.5266V58.468H69.7367L70.0495 57.6713H68.844V56.4271C68.844 56.4271 68.7523 56.4177 68.743 56.4271C68.2734 56.4271 67.7767 56.619 67.7767 57.6623V57.6714H66.9946V58.4681H67.7767V60.8929C67.7767 61.5791 68.1907 61.9357 68.7707 61.9357C69.2398 61.9357 69.8468 61.799 69.8468 60.8748C69.8103 60.893 69.58 61.0389 69.332 61.0389C68.982 61.0387 68.844 60.8288 68.844 60.5266ZM78.9195 57.5889C77.898 57.5889 77.033 58.4127 77.033 59.7671C77.033 61.1492 77.8705 61.9356 79.1227 61.9356C80.1067 61.9356 80.6217 61.5059 80.6863 61.4689C80.6863 61.4689 80.5941 61.3136 80.5666 61.268C80.4197 61.0388 80.2633 60.966 80.0885 60.966C79.7387 60.966 79.6927 61.1122 79.2143 61.1122C78.4043 61.1122 78.119 60.481 78.1007 60.0603H80.8337C80.8337 59.9499 80.8337 59.8037 80.8337 59.7398C80.8338 58.4494 80.0793 57.5889 78.9195 57.5889ZM78.0913 59.3C78.0913 58.8248 78.432 58.3852 78.9013 58.3852C79.4259 58.3852 79.72 58.8425 79.7289 59.3H78.0913ZM87.7158 61.9355C86.4094 61.9355 85.6273 61.0846 85.6273 59.767C85.6273 58.4586 86.4002 57.5888 87.7158 57.5888C89.0314 57.5888 89.8051 58.4586 89.8051 59.767C89.8051 61.0024 89.0962 61.9355 87.7158 61.9355ZM87.7158 61.1215C88.3691 61.1215 88.747 60.5632 88.747 59.7671C88.747 58.9711 88.3779 58.4036 87.7158 58.4036C87.072 58.4036 86.6852 58.9616 86.6852 59.7671C86.6852 60.5445 87.0534 61.1215 87.7158 61.1215Z" fill="#F57F26"/>
<path fill-rule="evenodd" clip-rule="evenodd" d="M53.4046 57.2136C52.7603 56.9118 52.2267 56.6743 52.2267 56.1802C52.2267 55.8046 52.5303 55.5395 53.1281 55.5395C53.3398 55.5395 53.5242 55.5574 53.708 55.5937C53.8001 55.6124 53.9007 55.6307 53.9933 55.6307C54.5086 55.6307 54.8027 55.3196 54.9959 54.7339L55.0788 54.4959C54.9959 54.4593 54.1497 54.0936 53.0454 54.0936C51.2878 54.0936 50.3587 55.2097 50.3587 56.3814C50.3587 56.9668 50.5427 57.3878 50.8277 57.7262C51.2055 58.156 51.7301 58.44 52.2265 58.6778C52.9532 59.035 53.6061 59.291 53.6061 59.8125C53.6061 60.2795 53.128 60.5446 52.4841 60.5446C51.5915 60.5446 50.8189 60.0417 50.7268 59.9869L50 61.3412C50.1287 61.4141 51.0582 62 52.6036 62C54.2418 62 55.4838 61.0663 55.4838 59.6206C55.4838 58.1929 54.334 57.6623 53.4046 57.2136ZM59.8179 57.8821L62.7987 54.249H60.6735L58.2998 57.3785H58.2623V54.249H56.5145V61.9355H56.6246C57.3795 61.9355 58.2805 61.588 58.2805 60.3342V58.5679H58.3087L60.7284 61.8444H62.9553L59.8179 57.8821Z" fill="#E71836"/>
<path fill-rule="evenodd" clip-rule="evenodd" d="M62.8905 46.0126C62.2743 46.132 61.3631 46.6897 61.3728 47.6691C61.3728 48.5568 62.109 49.1057 62.109 50.268C62.109 51.1466 61.6211 51.7414 61.0967 52.0712C61.3084 52.0529 61.5384 52.0437 61.796 52.0437C62.339 52.0343 62.6605 52.0891 62.6792 52.0891L65.4394 48.7212C64.6759 47.578 63.7834 46.6991 62.8905 46.0126Z" fill="#E71836"/>
<path fill-rule="evenodd" clip-rule="evenodd" d="M65.2097 55.1181C65.5592 54.5778 65.605 53.7183 65.6331 52.8489C65.6699 52.0343 65.8353 51.4212 66.9302 51.4123C67.1785 51.4123 67.4086 51.4486 67.8226 51.4486C69.4332 51.4403 70.4822 50.8905 71.1356 50.5243C69.8011 49.6828 67.8597 48.8225 65.4395 48.7214C65.2834 49.1613 64.0594 52.5471 63.9675 52.8217C63.9858 52.83 64.1978 53.0684 64.4643 53.5351C64.8603 54.1756 65.0718 54.7159 65.2097 55.1181Z" fill="#E71836"/>
<path fill-rule="evenodd" clip-rule="evenodd" d="M59.3851 52.3545C59.2385 52.3545 59.1736 52.2634 59.155 52.0985C59.1371 51.9427 58.4467 45.6562 58.3452 44.7136C58.327 44.5669 58.2903 44.32 58.2903 44.2281C58.2903 44.0822 58.3918 44 58.5021 44C58.8241 44 60.6089 44.4113 62.5046 45.7384C61.9616 45.8845 60.9678 46.4522 60.9769 47.6237C60.9769 48.6488 61.7225 49.2251 61.7314 50.2594C61.7314 51.9427 59.7811 52.3545 59.3851 52.3545Z" fill="#F57F26"/>
<path fill-rule="evenodd" clip-rule="evenodd" d="M65.3748 55.5668C65.4028 55.6396 65.4303 55.7042 65.4584 55.7498C65.504 55.8226 65.5589 55.8594 65.6239 55.8594C65.6698 55.8594 65.7249 55.8411 65.7893 55.814C65.9271 55.7498 71.6964 53.0773 72.561 52.6845C72.6901 52.62 72.9293 52.5193 73.0126 52.4733C73.0951 52.4274 73.1318 52.3543 73.1318 52.2909C73.1318 52.2446 73.1133 52.2082 73.0951 52.1712C72.9849 51.9974 72.4234 51.4123 71.4939 50.7712C70.758 51.1737 69.5982 51.7965 67.8783 51.8051C67.4545 51.8051 67.3628 51.7783 67.0774 51.7783C66.2312 51.7869 66.0285 52.1439 65.9913 52.8758C65.9913 53.0136 65.9827 53.1963 65.9827 53.3978C65.955 54.0563 65.8722 54.9623 65.3748 55.5668Z" fill="#F57F26"/>
<path d="M53.8741 66H51.8001C51.8001 66 51.4444 66.1105 51.2665 66.5248C51.2665 66.5248 51 67.0222 51 67.5198C51 68.0169 51 78.9877 51 78.9877H52.8075C52.8075 78.9877 53.341 78.8772 53.3702 78.4352C53.4001 77.993 53.3408 74.7042 53.3408 74.7042L57.0145 78.6008C57.0145 78.6008 57.3107 78.9595 57.6963 78.9877C58.0814 79.0154 60.3034 78.9877 60.3034 78.9877L55.8296 74.041L57.7257 71.8582H61.7258V76.7491C61.7258 76.7491 61.8318 79 64.0073 79C66.2078 79 66.437 79 66.437 79C66.437 79 66.9405 78.8218 66.9704 78.0481C66.9998 77.2741 66.9998 77.2197 66.9998 77.2197L65.1631 77.2192C65.1631 77.2192 64.1259 77.2467 64.1259 76.3071C64.1259 75.3674 64.1555 71.8584 64.1555 71.8584C64.1555 71.8584 66.8817 72.1622 67 70.8083V69.2088C67 69.2088 66.4202 69.7652 64.78 69.7652L64.1651 69.7565L64.174 66.9317H62.2547C62.2547 66.9317 61.8073 66.975 61.6675 67.4447V69.7736H57.6793C57.6793 69.7736 56.6354 69.7211 55.8343 70.6513C55.0327 71.5811 53.4018 73.4321 53.4018 73.4321L53.4112 67.4707C53.4112 67.4707 53.3583 66.5893 53.8741 66Z" fill="#242424"/>
<path d="M66.9997 69.1566V70.8699C66.9997 70.8699 66.9012 71.8093 65.1233 71.9383H55.8987C55.8987 71.9383 54.9309 71.9754 54.1604 72.583L55.8987 70.5567C55.8987 70.5567 56.6494 69.7093 57.7951 69.7093C58.9408 69.7093 65.3802 69.7093 65.3802 69.7093C65.3802 69.7093 66.4667 69.7279 66.9997 69.1566Z" fill="#EC1C24"/>
<path d="M53.2539 85.5981H51V95.8476H57.9234V93.8525H53.2539V85.5981ZM62.8827 91.9419H64.7185V93.7344C64.3797 93.8696 63.7201 94.0048 63.0919 94.0048C61.0629 94.0048 60.3869 92.9219 60.3869 90.7245C60.3869 88.6272 61.0306 87.3923 63.0596 87.3923C64.1872 87.3923 64.8312 87.7636 65.3617 88.4744L66.7631 87.1206C65.9094 85.8363 64.4116 85.447 63.011 85.447C59.8544 85.447 58.1968 87.2571 58.1968 90.7065C58.1968 94.1396 59.6938 96 62.9951 96C64.5088 96 65.9899 95.5943 66.7946 95.0028V90.03H62.8827V91.9419Z" fill="#6D6E71"/>
<path d="M84.5858 85.5822V83H82.7718V85.5822H80.374V87.4037H82.7718V89.9557H84.5858V87.4037H86.9999V85.5822H84.5858Z" fill="#6D6E71"/>
<path d="M76.6133 85.5936V91.515C76.6133 93.1515 75.8397 93.9562 74.5309 93.9562C73.2222 93.9562 72.4486 93.1515 72.4486 91.515V85.5936H70.2363V91.5497C70.2363 94.7818 71.8733 95.9951 74.4516 95.9951C74.4784 95.9951 74.5045 95.9947 74.5309 95.9947C74.5578 95.9947 74.5838 95.9951 74.6103 95.9951C77.1889 95.9951 78.8263 94.7814 78.8263 91.5497V85.5936H76.6133Z" fill="#4D4D4D"/>
<defs>
<filter id="filter0_d_101_86" x="0" y="0" width="255" height="182" filterUnits="userSpaceOnUse" color-interpolation-filters="sRGB">
<feFlood flood-opacity="0" result="BackgroundImageFix"/>
<feColorMatrix in="SourceAlpha" type="matrix" values="0 0 0 0 0 0 0 0 0 0 0 0 0 0 0 0 0 0 127 0" result="hardAlpha"/>
<feOffset/>
<feGaussianBlur stdDeviation="15"/>
<feComposite in2="hardAlpha" operator="out"/>
<feColorMatrix type="matrix" values="0 0 0 0 0 0 0 0 0 0 0 0 0 0 0 0 0 0 0.2 0"/>
<feBlend mode="normal" in2="BackgroundImageFix" result="effect1_dropShadow_101_86"/>
<feBlend mode="normal" in="SourceGraphic" in2="effect1_dropShadow_101_86" result="shape"/>
</filter>
</defs>
</svg>
