<svg width="255" height="182" viewBox="0 0 255 182" fill="none" xmlns="http://www.w3.org/2000/svg">
<g filter="url(#filter0_d_101_88)">
<rect x="30" y="30" width="195" height="122" rx="10" fill="white"/>
</g>
<mask id="path-2-inside-1_101_88" fill="white">
<path d="M215.023 68.1462L224.823 56.2158C224.882 56.1433 225 56.1854 225 56.2793V125.721C225 125.815 224.882 125.857 224.823 125.784L215.023 113.854C215.008 113.836 215 113.813 215 113.79V68.2097C215 68.1866 215.008 68.1641 215.023 68.1462Z"/>
</mask>
<path d="M224.823 56.2158L240.277 68.9106V68.9106L224.823 56.2158ZM215.023 68.1462L230.477 80.8412L230.477 80.841L215.023 68.1462ZM215.023 113.854L230.477 101.159L230.476 101.158L215.023 113.854ZM224.823 125.784L209.368 138.479L209.369 138.479L224.823 125.784ZM209.368 43.521L199.568 55.4515L230.477 80.841L240.277 68.9106L209.368 43.521ZM195 68.2097V113.79H235V68.2097H195ZM199.568 126.549L209.368 138.479L240.277 113.089L230.477 101.159L199.568 126.549ZM245 125.721V56.2793H205V125.721H245ZM209.369 138.479C221.345 153.058 245 144.593 245 125.721H205C205 107.036 228.42 98.655 240.277 113.089L209.369 138.479ZM195 113.79C195 118.443 196.614 122.953 199.569 126.549L230.476 101.158C233.402 104.719 235 109.184 235 113.79H195ZM199.568 55.4513C196.615 59.0472 195 63.5564 195 68.2097H235C235 72.8167 233.402 77.2811 230.477 80.8412L199.568 55.4513ZM240.277 68.9106C228.419 83.3466 205 74.9623 205 56.2793H245C245 37.4085 221.345 28.94 209.368 43.521L240.277 68.9106Z" fill="#CCCCCC" mask="url(#path-2-inside-1_101_88)"/>
<rect x="50" y="110" width="45" height="8" fill="#C4C4C4"/>
<rect x="101" y="110" width="45" height="8" fill="#C4C4C4"/>
<rect x="152" y="110" width="29" height="8" fill="#C4C4C4"/>
<rect x="130" y="125" width="51" height="8" fill="#C4C4C4"/>
<rect x="50" y="125" width="74" height="8" fill="#C4C4C4"/>
<path d="M66.817 46H60.183C59.5296 46 59 46.5296 59 47.183C59 47.493 59.1217 47.7906 59.3389 48.0118L61.4129 50.1243C61.9629 50.6844 62.715 51 63.5 51C64.285 51 65.0371 50.6844 65.5871 50.1243L67.6611 48.0118C67.8783 47.7906 68 47.493 68 47.183C68 46.5296 67.4704 46 66.817 46Z" fill="#181878"/>
<path d="M74.0496 52H52.9504C51.8732 52 51 52.8732 51 53.9504C51 54.6057 51.3291 55.2172 51.876 55.5782L57.2457 59.1221C59.1016 60.347 61.2763 61 63.5 61C65.7237 61 67.8984 60.347 69.7543 59.1221L75.124 55.5782C75.6709 55.2172 76 54.6057 76 53.9504C76 52.8732 75.1268 52 74.0496 52Z" fill="#181878"/>
<circle cx="64" cy="77" r="14" fill="#181878"/>
<circle cx="64" cy="77" r="5" fill="white"/>
<path d="M93.982 56.575V60.774H89.302V56.575H86.936V67.17H89.302V62.867H93.982V67.17H96.348V56.575H93.982ZM101.992 67.352C102.993 67.352 103.721 67.001 104.176 66.39V67.17H106.49V59.552H104.176V60.332C103.721 59.721 102.993 59.37 101.992 59.37C99.8081 59.37 98.2871 61.047 98.2871 63.361C98.2871 65.675 99.8081 67.352 101.992 67.352ZM102.356 65.376C101.251 65.376 100.549 64.531 100.549 63.361C100.549 62.191 101.251 61.346 102.356 61.346C103.487 61.346 104.215 62.191 104.215 63.361C104.215 64.531 103.487 65.376 102.356 65.376ZM108.757 70.342H111.071V66.39C111.526 67.001 112.254 67.352 113.255 67.352C115.439 67.352 116.96 65.675 116.96 63.361C116.96 61.047 115.439 59.37 113.255 59.37C112.254 59.37 111.526 59.721 111.071 60.332V59.552H108.757V70.342ZM112.891 65.376C111.76 65.376 111.032 64.531 111.032 63.361C111.032 62.191 111.76 61.346 112.891 61.346C113.996 61.346 114.698 62.191 114.698 63.361C114.698 64.531 113.996 65.376 112.891 65.376ZM118.836 70.342H121.15V66.39C121.605 67.001 122.333 67.352 123.334 67.352C125.518 67.352 127.039 65.675 127.039 63.361C127.039 61.047 125.518 59.37 123.334 59.37C122.333 59.37 121.605 59.721 121.15 60.332V59.552H118.836V70.342ZM122.97 65.376C121.839 65.376 121.111 64.531 121.111 63.361C121.111 62.191 121.839 61.346 122.97 61.346C124.075 61.346 124.777 62.191 124.777 63.361C124.777 64.531 124.075 65.376 122.97 65.376ZM133.619 59.552L131.955 64.258L130.304 59.552H127.743L130.746 66.962L129.368 70.342H131.643L136.024 59.552H133.619ZM86.936 84.17H89.302V81.349H91.005C93.761 81.349 95.373 79.815 95.373 77.449C95.373 75.109 93.761 73.575 91.005 73.575H86.936V84.17ZM89.302 79.256V75.668H90.901C92.214 75.668 93.007 76.279 93.007 77.449C93.007 78.632 92.214 79.256 90.901 79.256H89.302ZM100.692 76.37C98.3394 76.37 96.6494 78.047 96.6494 80.361C96.6494 82.675 98.3394 84.352 100.692 84.352C103.045 84.352 104.735 82.675 104.735 80.361C104.735 78.047 103.045 76.37 100.692 76.37ZM100.692 78.346C101.784 78.346 102.499 79.191 102.499 80.361C102.499 81.531 101.784 82.376 100.692 82.376C99.6004 82.376 98.8854 81.531 98.8854 80.361C98.8854 79.191 99.6004 78.346 100.692 78.346ZM107.768 72.873C106.949 72.873 106.351 73.471 106.351 74.29C106.351 75.109 106.949 75.707 107.768 75.707C108.587 75.707 109.185 75.109 109.185 74.29C109.185 73.471 108.587 72.873 107.768 72.873ZM108.925 76.552H106.611V84.196H108.925V76.552ZM111.181 84.17H113.495V80.257C113.495 79.074 114.041 78.359 114.951 78.359C115.822 78.359 116.29 78.996 116.29 80.153V84.17H118.604V79.763C118.604 77.657 117.395 76.37 115.627 76.37C114.652 76.37 113.95 76.721 113.495 77.332V76.552H111.181V84.17ZM125.242 76.552H123.734V74.29H121.42V76.552H119.912V78.541H121.42V84.17H123.734V78.541H125.242V76.552Z" fill="#181878"/>
<defs>
<filter id="filter0_d_101_88" x="0" y="0" width="255" height="182" filterUnits="userSpaceOnUse" color-interpolation-filters="sRGB">
<feFlood flood-opacity="0" result="BackgroundImageFix"/>
<feColorMatrix in="SourceAlpha" type="matrix" values="0 0 0 0 0 0 0 0 0 0 0 0 0 0 0 0 0 0 127 0" result="hardAlpha"/>
<feOffset/>
<feGaussianBlur stdDeviation="15"/>
<feComposite in2="hardAlpha" operator="out"/>
<feColorMatrix type="matrix" values="0 0 0 0 0 0 0 0 0 0 0 0 0 0 0 0 0 0 0.2 0"/>
<feBlend mode="normal" in2="BackgroundImageFix" result="effect1_dropShadow_101_88"/>
<feBlend mode="normal" in="SourceGraphic" in2="effect1_dropShadow_101_88" result="shape"/>
</filter>
</defs>
</svg>
