<svg width="255" height="182" viewBox="0 0 255 182" fill="none" xmlns="http://www.w3.org/2000/svg">
<g filter="url(#filter0_d_101_87)">
<rect x="30" y="30" width="195" height="122" rx="10" fill="white"/>
</g>
<mask id="path-2-inside-1_101_87" fill="white">
<path d="M215.023 68.1462L224.823 56.2158C224.882 56.1433 225 56.1854 225 56.2793V125.721C225 125.815 224.882 125.857 224.823 125.784L215.023 113.854C215.008 113.836 215 113.813 215 113.79V68.2097C215 68.1866 215.008 68.1641 215.023 68.1462Z"/>
</mask>
<path d="M224.823 56.2158L240.277 68.9106V68.9106L224.823 56.2158ZM215.023 68.1462L230.477 80.8412L230.477 80.841L215.023 68.1462ZM215.023 113.854L230.477 101.159L230.476 101.158L215.023 113.854ZM224.823 125.784L209.368 138.479L209.369 138.479L224.823 125.784ZM209.368 43.521L199.568 55.4515L230.477 80.841L240.277 68.9106L209.368 43.521ZM195 68.2097V113.79H235V68.2097H195ZM199.568 126.549L209.368 138.479L240.277 113.089L230.477 101.159L199.568 126.549ZM245 125.721V56.2793H205V125.721H245ZM209.369 138.479C221.345 153.058 245 144.593 245 125.721H205C205 107.036 228.42 98.655 240.277 113.089L209.369 138.479ZM195 113.79C195 118.443 196.614 122.953 199.569 126.549L230.476 101.158C233.402 104.719 235 109.184 235 113.79H195ZM199.568 55.4513C196.615 59.0472 195 63.5564 195 68.2097H235C235 72.8167 233.402 77.2811 230.477 80.8412L199.568 55.4513ZM240.277 68.9106C228.419 83.3466 205 74.9623 205 56.2793H245C245 37.4085 221.345 28.94 209.368 43.521L240.277 68.9106Z" fill="#CCCCCC" mask="url(#path-2-inside-1_101_87)"/>
<rect x="50" y="110" width="45" height="8" fill="#C4C4C4"/>
<rect x="101" y="110" width="45" height="8" fill="#C4C4C4"/>
<rect x="152" y="110" width="29" height="8" fill="#C4C4C4"/>
<rect x="130" y="125" width="51" height="8" fill="#C4C4C4"/>
<rect x="50" y="125" width="74" height="8" fill="#C4C4C4"/>
<path d="M51.4439 68.3668C51.4439 66.7623 52.7481 65.4513 54.3412 65.4513H126.656C128.25 65.4513 129.555 66.7623 129.555 68.3668V79.9274H131V68.3668C131 65.9609 129.049 64 126.656 64H54.3412C51.9476 64 50 65.9609 50 68.3668V79.9274H51.4439" fill="#050100"/>
<path d="M63.4068 77.0134C63.4068 77.1312 63.3346 77.1715 63.2095 77.1715H62.1186C61.9918 77.1715 61.9517 77.1312 61.9517 77.0038V74.0221C61.9517 73.8834 61.8555 73.8093 61.7191 73.8093H58.8587C58.7319 73.8093 58.6565 73.8834 58.6565 74.0221V77.0038C58.6565 77.1312 58.5843 77.1715 58.4688 77.1715H57.3571C57.2528 77.1715 57.2095 77.1312 57.2095 77.0134V69.6053C57.2095 69.4892 57.2528 69.4263 57.3571 69.4263H58.4688C58.5843 69.4263 58.6565 69.4892 58.6565 69.6053V72.4724C58.6565 72.6079 58.7319 72.6708 58.8587 72.6708H61.7191C61.8555 72.6708 61.9517 72.6079 61.9517 72.4724V69.6053C61.9517 69.4892 61.9918 69.4263 62.1186 69.4263H63.2095C63.3346 69.4263 63.4068 69.4892 63.4068 69.6053" fill="#050100"/>
<path d="M66.049 77.2812C65.2389 77.2812 64.8218 76.6281 64.8218 76.0685V71.463C64.8218 71.3259 64.8731 71.263 64.9982 71.263H66.049C66.1501 71.263 66.2255 71.3259 66.2255 71.463V75.9121C66.2255 76.0379 66.2801 76.1008 66.4261 76.1008H68.3432C68.4699 76.1008 68.5565 76.0379 68.5565 75.9121V71.463C68.5565 71.3259 68.6063 71.263 68.733 71.263H69.7806C69.8945 71.263 69.9699 71.3259 69.9699 71.463V78.1778C69.9699 78.3455 69.9186 78.5035 69.8432 78.6615L69.1325 79.8323C69.0699 79.9355 68.9753 80 68.871 80H68.733C68.6063 80 68.5565 79.9258 68.5565 79.8113V76.8409C68.5565 76.7119 68.4811 76.6619 68.3656 76.6926L66.3523 77.2602C66.2592 77.2812 66.1421 77.2812 66.049 77.2812Z" fill="#050100"/>
<path d="M72.5865 77.2715C71.9464 77.2715 71.3801 76.7441 71.3801 76.0588V71.4629C71.3801 71.3259 71.4331 71.2646 71.5582 71.2646H72.6186C72.7133 71.2646 72.7871 71.3259 72.7871 71.4629V75.9104C72.7871 76.0394 72.8496 76.0894 72.994 76.0894H74.916C75.0395 76.0894 75.1245 76.0394 75.1245 75.9104V71.4629C75.1245 71.3259 75.1662 71.2646 75.2914 71.2646H76.3406C76.4561 71.2646 76.5283 71.3259 76.5283 71.4629V77.0199C76.5283 77.1344 76.4561 77.1763 76.3406 77.1763H75.2914C75.1662 77.1763 75.1245 77.1344 75.1245 77.007V76.8409C75.1245 76.7022 75.0395 76.649 74.9256 76.6925L72.9122 77.2392C72.8063 77.2715 72.6892 77.2715 72.5865 77.2715Z" fill="#050100"/>
<path d="M83.0915 72.4031V77.0199C83.0915 77.1328 83.0161 77.178 82.9022 77.178H81.8514C81.7278 77.178 81.6861 77.1328 81.6861 77.0087V72.5596C81.6861 72.4241 81.6011 72.3499 81.4776 72.3499H79.5557C79.4097 72.3499 79.3471 72.4241 79.3471 72.5596V77.0087C79.3471 77.1328 79.2749 77.178 79.1803 77.178H78.1214C77.9947 77.178 77.9434 77.1328 77.9434 77.0199V71.463C77.9434 71.3275 77.9947 71.2647 78.1214 71.2647H79.1803C79.2749 71.2647 79.3471 71.3275 79.3471 71.463V71.642C79.3471 71.7597 79.3984 71.8113 79.5557 71.7694L81.5594 71.2211C81.6637 71.2002 81.7583 71.1711 81.8642 71.1711C82.5557 71.1711 83.0915 71.7484 83.0915 72.4031Z" fill="#050100"/>
<path d="M88.0421 75.9072V72.5643C88.0421 72.4192 87.9795 72.3434 87.8319 72.3434H85.8908C85.7464 72.3434 85.6918 72.4192 85.6918 72.5643V75.9072C85.6918 76.033 85.7464 76.0862 85.8908 76.0862H87.8319C87.9795 76.0862 88.0421 76.033 88.0421 75.9072ZM84.2881 76.054V73.398C84.2881 72.8288 84.5287 72.3982 85.0325 72.1241L86.1426 71.4694C86.3736 71.321 86.6047 71.2581 86.8758 71.2581H87.8416C87.9795 71.2581 88.0421 71.2065 88.0421 71.0808V68.8973C88.0421 68.7812 88.0934 68.6974 88.1993 68.6974H89.2694C89.3945 68.6974 89.4458 68.7812 89.4458 68.8973V77.0134C89.4458 77.1295 89.3945 77.1715 89.2694 77.1715H88.1993C88.0934 77.1715 88.0421 77.1295 88.0421 77.0022V76.8344C88.0421 76.6974 87.9795 76.6442 87.8416 76.6877L85.8202 77.236C85.7031 77.2666 85.61 77.2666 85.5041 77.2666C84.9587 77.2876 84.2881 76.7812 84.2881 76.054" fill="#050100"/>
<path d="M94.4017 75.9105V72.5725C94.4017 72.4241 94.3263 72.3483 94.1916 72.3483H92.2536C92.106 72.3483 92.0515 72.4241 92.0515 72.5725V75.9105C92.0515 76.0395 92.106 76.0895 92.2536 76.0895H94.1916C94.3263 76.0895 94.4017 76.0395 94.4017 75.9105ZM91.8638 77.2715C91.2028 77.2715 90.6477 76.7329 90.6477 76.0589V73.4046C90.6477 72.8337 90.8883 72.4031 91.3809 72.1274L92.5039 71.4743C92.7349 71.3259 92.9643 71.2647 93.2258 71.2647H95.6274C95.7429 71.2647 95.8055 71.3259 95.8055 71.463V77.02C95.8055 77.1344 95.7429 77.178 95.6274 77.178H94.5589C94.4418 77.178 94.4017 77.1344 94.4017 77.0087V76.841C94.4017 76.7023 94.3263 76.6491 94.1916 76.6926L92.1782 77.2393C92.0627 77.2715 91.9696 77.2715 91.8638 77.2715" fill="#050100"/>
<path d="M98.6225 77.0119C98.6225 77.1296 98.5503 77.17 98.4444 77.17H97.3968C97.2589 77.17 97.2188 77.1296 97.2188 77.0119V71.4598C97.2188 71.3211 97.2589 71.2566 97.3968 71.2566H98.4444C98.5503 71.2566 98.6225 71.3211 98.6225 71.4598V77.0119ZM98.6225 69.7618C98.6225 69.8892 98.5503 69.9311 98.4444 69.9311H97.3968C97.2589 69.9311 97.2188 69.8892 97.2188 69.7618V68.899C97.2188 68.7813 97.2589 68.6975 97.3968 68.6975H98.4444C98.5503 68.6975 98.6225 68.7813 98.6225 68.899" fill="#050100"/>
<path d="M101.499 75.6541V71.6613C101.499 71.0679 101.749 70.6164 102.266 70.3116L103.493 69.6263C103.711 69.4876 103.973 69.4247 104.215 69.4247H106.815C106.942 69.4247 107.003 69.4876 107.003 69.6166V70.3842C107.003 70.5019 106.942 70.5519 106.815 70.5519H103.177C103.05 70.5519 102.997 70.6277 102.997 70.7631V75.8444C102.997 75.9814 103.05 76.0443 103.177 76.0443H106.92C107.035 76.0443 107.109 76.0991 107.109 76.2024C107.109 76.3185 107.058 76.4152 106.942 76.4765L106.04 76.9828C105.798 77.1199 105.548 77.1731 105.294 77.1731H103.031C102.286 77.1731 101.499 76.6345 101.499 75.6541Z" fill="#050100"/>
<path d="M111.769 75.9105V72.5725C111.769 72.4241 111.694 72.3483 111.559 72.3483H109.62C109.472 72.3483 109.419 72.4241 109.419 72.5725V75.9105C109.419 76.0395 109.472 76.0895 109.62 76.0895H111.559C111.694 76.0895 111.769 76.0395 111.769 75.9105ZM109.231 77.2715C108.57 77.2715 108.015 76.7329 108.015 76.0589V73.4046C108.015 72.8337 108.256 72.4031 108.749 72.1274L109.872 71.4743C110.103 71.3259 110.334 71.2647 110.595 71.2647H112.995C113.111 71.2647 113.173 71.3259 113.173 71.463V77.02C113.173 77.1344 113.111 77.178 112.995 77.178H111.927C111.811 77.178 111.769 77.1344 111.769 77.0087V76.841C111.769 76.7023 111.694 76.6491 111.559 76.6926L109.546 77.2393C109.43 77.2715 109.337 77.2715 109.231 77.2715" fill="#050100"/>
<path d="M118.427 72.1903C118.427 72.2935 118.355 72.3483 118.24 72.3483H116.175C116.037 72.3483 115.984 72.4225 115.984 72.5595V77.007C115.984 77.1328 115.901 77.1764 115.796 77.1764H114.736C114.611 77.1764 114.569 77.1328 114.569 77.0167V71.4646C114.569 71.3275 114.611 71.2646 114.736 71.2646H115.796C115.901 71.2646 115.984 71.3275 115.984 71.4646V71.6323C115.984 71.7468 116.037 71.8 116.175 71.8C116.205 71.8 116.246 71.8 116.287 71.7791L116.895 71.3775C117.117 71.2646 117.348 71.2001 117.619 71.2001H118.24C118.355 71.2001 118.427 71.2646 118.427 71.3775" fill="#050100"/>
<path d="M122.391 75.9072V72.5643C122.391 72.4192 122.331 72.3434 122.183 72.3434H120.242C120.094 72.3434 120.043 72.4192 120.043 72.5643V75.9072C120.043 76.033 120.094 76.0862 120.242 76.0862H122.183C122.331 76.0862 122.391 76.033 122.391 75.9072ZM118.637 76.054V73.398C118.637 72.8288 118.878 72.3982 119.385 72.1241L120.494 71.4694C120.725 71.321 120.956 71.2581 121.227 71.2581H122.193C122.331 71.2581 122.391 71.2065 122.391 71.0808V68.8973C122.391 68.7812 122.446 68.6974 122.549 68.6974H123.617C123.745 68.6974 123.797 68.7812 123.797 68.8973V77.0134C123.797 77.1295 123.745 77.1715 123.617 77.1715H122.549C122.446 77.1715 122.391 77.1295 122.391 77.0022V76.8344C122.391 76.6974 122.331 76.6442 122.193 76.6877L120.17 77.236C120.054 77.2666 119.961 77.2666 119.853 77.2666C119.31 77.2876 118.637 76.7812 118.637 76.054" fill="#050100"/>
<defs>
<filter id="filter0_d_101_87" x="0" y="0" width="255" height="182" filterUnits="userSpaceOnUse" color-interpolation-filters="sRGB">
<feFlood flood-opacity="0" result="BackgroundImageFix"/>
<feColorMatrix in="SourceAlpha" type="matrix" values="0 0 0 0 0 0 0 0 0 0 0 0 0 0 0 0 0 0 127 0" result="hardAlpha"/>
<feOffset/>
<feGaussianBlur stdDeviation="15"/>
<feComposite in2="hardAlpha" operator="out"/>
<feColorMatrix type="matrix" values="0 0 0 0 0 0 0 0 0 0 0 0 0 0 0 0 0 0 0.2 0"/>
<feBlend mode="normal" in2="BackgroundImageFix" result="effect1_dropShadow_101_87"/>
<feBlend mode="normal" in="SourceGraphic" in2="effect1_dropShadow_101_87" result="shape"/>
</filter>
</defs>
</svg>
