<svg width="250" height="54" viewBox="0 0 250 54" fill="none" xmlns="http://www.w3.org/2000/svg">
<rect x="1.5" y="1.5" width="247" height="51" rx="25.5" stroke="#E56969" stroke-width="3"/>
<path d="M43.7502 32.854C42.6356 33.0007 41.5062 33.1107 40.3622 33.184C39.2182 33.2427 38.0962 33.272 36.9962 33.272H32.2002V18.972H42.3422V21.502H35.4342V30.742H37.3042C38.3602 30.742 39.4089 30.7127 40.4502 30.654C41.4916 30.5953 42.5109 30.5073 43.5082 30.39L43.7502 32.854ZM45.2242 27.134H39.9442V24.604H45.2242V17.982H48.4142V38.376H45.2242V27.134ZM75.5402 17.982V21.502H78.3122V24.032H75.5402V27.97H72.3502V17.982H75.5402ZM66.7402 20.952H62.4282V24.78H66.7402V20.952ZM59.3482 18.422H69.8202V27.31H59.3482V18.422ZM76.0242 36.198C76.0242 37.122 75.6429 37.826 74.8802 38.31C74.1176 38.8087 73.0616 39.058 71.7122 39.058C70.3629 39.058 69.3069 38.8087 68.5442 38.31C67.7816 37.826 67.4002 37.122 67.4002 36.198C67.4002 35.274 67.7816 34.57 68.5442 34.086C69.3069 33.5873 70.3629 33.338 71.7122 33.338C73.0616 33.338 74.1176 33.5873 74.8802 34.086C75.6429 34.57 76.0242 35.274 76.0242 36.198ZM66.9602 38.376H60.5142V30.082H63.7042V35.846H66.9602V38.376ZM73.2962 28.674V30.632H76.5962V32.832H66.8282V30.632H70.1282V28.674H73.2962ZM73.4282 36.198C73.4282 35.6553 72.8562 35.384 71.7122 35.384C70.5682 35.384 69.9962 35.6553 69.9962 36.198C69.9962 36.7407 70.5682 37.012 71.7122 37.012C72.8562 37.012 73.4282 36.7407 73.4282 36.198ZM79.8185 30.72V28.19H99.5305V30.72H79.8185ZM85.4945 32.084V35.736H97.4845V38.266H82.3045V32.084H85.4945ZM89.6745 20.666C88.1199 20.666 87.0125 20.8347 86.3525 21.172C85.7072 21.4947 85.3845 21.942 85.3845 22.514C85.3845 23.086 85.7072 23.5407 86.3525 23.878C87.0125 24.2007 88.1199 24.362 89.6745 24.362C91.2292 24.362 92.3292 24.2007 92.9745 23.878C93.6345 23.5407 93.9645 23.086 93.9645 22.514C93.9645 21.942 93.6345 21.4947 92.9745 21.172C92.3292 20.8347 91.2292 20.666 89.6745 20.666ZM89.6745 26.892C88.3545 26.892 87.2252 26.782 86.2865 26.562C85.3479 26.342 84.5705 26.0413 83.9545 25.66C83.3532 25.264 82.9059 24.802 82.6125 24.274C82.3339 23.7313 82.1945 23.1447 82.1945 22.514C82.1945 21.8833 82.3339 21.304 82.6125 20.776C82.9059 20.2333 83.3532 19.7713 83.9545 19.39C84.5705 18.994 85.3479 18.686 86.2865 18.466C87.2252 18.246 88.3545 18.136 89.6745 18.136C90.9945 18.136 92.1239 18.246 93.0625 18.466C94.0012 18.686 94.7712 18.994 95.3725 19.39C95.9885 19.7713 96.4359 20.2333 96.7145 20.776C97.0079 21.304 97.1545 21.8833 97.1545 22.514C97.1545 23.1447 97.0079 23.7313 96.7145 24.274C96.4359 24.802 95.9885 25.264 95.3725 25.66C94.7712 26.0413 94.0012 26.342 93.0625 26.562C92.1239 26.782 90.9945 26.892 89.6745 26.892ZM108.177 29.18C108.177 27.5667 108.587 26.3273 109.409 25.462C110.245 24.5967 111.374 24.164 112.797 24.164C114.219 24.164 115.341 24.5967 116.163 25.462C116.999 26.3273 117.417 27.5667 117.417 29.18C117.417 30.7933 116.999 32.0327 116.163 32.898C115.341 33.7633 114.219 34.196 112.797 34.196C111.374 34.196 110.245 33.7633 109.409 32.898C108.587 32.0327 108.177 30.7933 108.177 29.18ZM117.483 24.604H119.463V18.092H122.301V37.936H119.463V32.304H117.483V29.774H119.463V27.134H117.483V24.604ZM126.239 17.982V38.376H123.225V17.982H126.239ZM111.213 20.732V17.762H114.403V20.732H117.747V23.262H107.649V20.732H111.213ZM111.081 29.18C111.081 29.972 111.227 30.588 111.521 31.028C111.814 31.4533 112.239 31.666 112.797 31.666C113.354 31.666 113.779 31.4533 114.073 31.028C114.366 30.588 114.513 29.972 114.513 29.18C114.513 28.388 114.366 27.7793 114.073 27.354C113.779 26.914 113.354 26.694 112.797 26.694C112.239 26.694 111.814 26.914 111.521 27.354C111.227 27.7793 111.081 28.388 111.081 29.18ZM142.881 18.092V22.426H144.245V17.982H147.259V29.73H144.245V25.176H142.881V29.73H139.867V18.092H142.881ZM139.207 28.74C138.65 28.8133 138.144 28.872 137.689 28.916C137.234 28.96 136.794 28.9967 136.369 29.026C135.958 29.0407 135.555 29.0553 135.159 29.07C134.763 29.0847 134.345 29.092 133.905 29.092H129.879V18.532H138.349V20.952H133.069V22.624H137.821V24.956H133.069V26.672H134.213C134.624 26.672 135.005 26.672 135.357 26.672C135.724 26.6573 136.09 26.6427 136.457 26.628C136.824 26.5987 137.205 26.5693 137.601 26.54C138.012 26.496 138.466 26.4447 138.965 26.386L139.207 28.74ZM144.069 38.486V33.14H132.365V30.61H147.259V38.486H144.069ZM167.685 18.84V29.752H161.921V33.602H170.171V36.132H150.459V33.602H158.709V29.752H152.945V18.84H156.135V22.14H164.495V18.84H167.685ZM164.495 27.222V24.67H156.135V27.222H164.495ZM183.447 23.724C183.447 24.78 183.191 25.8067 182.677 26.804C182.179 27.7867 181.511 28.74 180.675 29.664C179.839 30.5733 178.886 31.446 177.815 32.282C176.745 33.1033 175.645 33.888 174.515 34.636L172.821 32.282C175.227 30.7273 177.067 29.2313 178.343 27.794C179.619 26.3567 180.257 24.956 180.257 23.592V21.502H173.173V18.972H183.447V23.724ZM186.505 17.982H189.695V38.376H186.505V17.982ZM199.485 26.078H214.863L211.849 23.46L213.565 21.59L219.769 27.354L213.565 33.118L211.849 31.226L214.841 28.608H199.485V26.078Z" fill="#E56969"/>
</svg>
