<svg width="290" height="290" viewBox="0 0 290 290" fill="none" xmlns="http://www.w3.org/2000/svg">
<path fill-rule="evenodd" clip-rule="evenodd" d="M9.99162 92C3.5419 108.417 0 126.295 0 145C0 225.081 64.9187 290 145 290C225.081 290 290 225.081 290 145C290 126.295 286.458 108.417 280.008 92H9.99162Z" fill="#FCF9F9"/>
<path fill-rule="evenodd" clip-rule="evenodd" d="M280.009 92H9.99219C31.1551 38.1334 83.6246 0 145.001 0C206.377 0 258.846 38.1334 280.009 92Z" fill="#E56969"/>
<path d="M94.8352 42.03C92.7052 41.64 91.7452 40.53 91.7452 39.39V38.85H89.6902V39.39C89.6902 40.62 88.7452 41.805 86.5552 42.255L87.4102 43.755C89.0452 43.395 90.1552 42.585 90.7552 41.52C91.3702 42.48 92.4502 43.215 93.9952 43.53L94.8352 42.03ZM95.6152 50.58H90.0952V49.635H95.6152V50.58ZM95.6152 48.15H90.0952V47.28H91.8352V45.69C92.8852 45.6 93.9502 45.48 94.9852 45.3L94.8652 43.905C91.9702 44.28 88.6552 44.28 86.1052 44.28L86.3302 45.855C87.4102 45.855 88.6102 45.855 89.8702 45.795V47.04H88.1452V52.125H97.5802V47.04H95.6152V48.15ZM95.6002 38.49V46.425H97.5802V38.49H95.6002ZM110.629 47.595C111.184 44.655 111.184 42.705 111.184 40.98V39.66H101.149V41.235H109.204C109.204 42.84 109.174 44.76 108.649 47.37L110.629 47.595ZM106.279 49.035V44.28H104.299V49.035H99.889V50.625H112.384V49.035H106.279ZM123.243 48.66H125.223V38.475H123.243V40.89H121.563V42.48H123.243V43.68H121.563V45.27H123.243V48.66ZM117.018 41.04H118.308V45.315C117.873 45.33 117.438 45.345 117.018 45.345V41.04ZM121.473 45.075C121.068 45.12 120.648 45.165 120.213 45.195V41.04H121.308V39.465H114.018V41.04H115.113V45.39C114.603 45.39 114.123 45.39 113.673 45.39L113.883 46.995C116.058 46.995 119.028 46.95 121.593 46.515L121.473 45.075ZM118.098 50.475V47.895H116.118V52.05H125.538V50.475H118.098ZM135.617 39.93H132.527V38.46H130.532V39.93H127.472V41.475H135.602L135.617 39.93ZM130.037 44.625C130.037 43.875 130.652 43.47 131.537 43.47C132.407 43.47 133.037 43.875 133.037 44.625C133.037 45.39 132.407 45.795 131.537 45.795C130.652 45.795 130.037 45.39 130.037 44.625ZM134.927 44.625C134.927 43.065 133.517 41.97 131.537 41.97C129.557 41.97 128.147 43.065 128.147 44.625C128.147 46.215 129.557 47.295 131.537 47.295C133.517 47.295 134.927 46.215 134.927 44.625ZM131.417 48.045H129.437V52.05H138.842V50.475H131.417V48.045ZM138.347 42.69V38.475H136.367V48.81H138.347V44.325H140.177V42.69H138.347ZM145.501 39.51V41.085H150.001C149.686 43.02 147.976 44.625 144.901 45.465L145.726 47.04C149.836 45.855 152.146 43.26 152.146 39.51H145.501ZM148.936 47.37H146.956V52.05H156.346V50.475H148.936V47.37ZM155.866 42.33V38.475H153.886V48.36H155.866V43.95H157.711V42.33H155.866ZM168.375 48.66H170.355V38.475H168.375V40.89H166.695V42.48H168.375V43.68H166.695V45.27H168.375V48.66ZM162.15 41.04H163.44V45.315C163.005 45.33 162.57 45.345 162.15 45.345V41.04ZM166.605 45.075C166.2 45.12 165.78 45.165 165.345 45.195V41.04H166.44V39.465H159.15V41.04H160.245V45.39C159.735 45.39 159.255 45.39 158.805 45.39L159.015 46.995C161.19 46.995 164.16 46.95 166.725 46.515L166.605 45.075ZM163.23 50.475V47.895H161.25V52.05H170.67V50.475H163.23ZM182.173 41.7V42.885H179.113V44.37H182.173V45.405H184.153V38.475H182.173V40.215H179.638C179.698 39.825 179.728 39.42 179.728 39H173.563V40.575H177.553C177.313 42.195 175.903 43.515 172.768 44.13L173.428 45.72C176.458 45.06 178.408 43.755 179.248 41.7H182.173ZM177.043 50.595V49.725H184.153V45.915H175.048V47.475H182.173V48.255H175.063V52.155H184.438V50.595H177.043ZM190.782 41.46H192.792V39.855H186.642V41.46H188.862V42.135C188.862 44.505 188.142 46.98 186.132 48.255L187.302 49.71C188.547 48.93 189.357 47.58 189.837 46.005C190.287 47.46 191.067 48.66 192.297 49.38L193.452 47.94C191.457 46.77 190.782 44.445 190.782 42.135V41.46ZM193.587 43.185H191.832V44.79H193.587V51.66H195.432V38.7H193.587V43.185ZM196.377 38.46V52.275H198.252V38.46H196.377ZM202.632 40.3359L202.42 47.7993H200.787L200.574 40.3359H202.632ZM200.516 50.0991C200.516 49.811 200.613 49.5693 200.809 49.374C201.009 49.1738 201.277 49.0737 201.614 49.0737C201.951 49.0737 202.217 49.1738 202.413 49.374C202.613 49.5693 202.713 49.811 202.713 50.0991C202.713 50.3823 202.613 50.6216 202.413 50.8169C202.217 51.0122 201.951 51.1099 201.614 51.1099C201.277 51.1099 201.009 51.0122 200.809 50.8169C200.613 50.6216 200.516 50.3823 200.516 50.0991ZM120.967 62.78V65.21C120.967 67.685 119.422 70.295 117.457 71.285L118.222 72.275C120.367 71.135 121.987 68.21 121.987 65.21V62.78H120.967ZM121.192 62.78V65.21C121.192 68.12 122.767 70.895 124.867 72.02L125.632 71.03C123.712 70.07 122.197 67.595 122.197 65.21V62.78H121.192ZM126.817 61.61V75.17H128.077V61.61H126.817ZM127.777 67.1V68.15H130.297V67.1H127.777ZM134.466 66.2V68.765H135.696V66.2H134.466ZM139.446 66.2V68.765H140.676V66.2H139.446ZM131.436 68.315V69.32H143.691V68.315H131.436ZM137.556 70.34C134.646 70.34 132.906 71.195 132.906 72.74C132.906 74.285 134.646 75.155 137.556 75.155C140.466 75.155 142.206 74.285 142.206 72.74C142.206 71.195 140.466 70.34 137.556 70.34ZM137.556 71.3C139.686 71.3 140.946 71.825 140.946 72.74C140.946 73.67 139.686 74.18 137.556 74.18C135.441 74.18 134.166 73.67 134.166 72.74C134.166 71.825 135.441 71.3 137.556 71.3ZM137.571 61.85C134.616 61.85 132.801 62.795 132.801 64.385C132.801 65.96 134.616 66.89 137.571 66.89C140.511 66.89 142.341 65.96 142.341 64.385C142.341 62.795 140.511 61.85 137.571 61.85ZM137.571 62.825C139.731 62.825 141.066 63.395 141.066 64.385C141.066 65.36 139.731 65.93 137.571 65.93C135.411 65.93 134.076 65.36 134.076 64.385C134.076 63.395 135.411 62.825 137.571 62.825ZM145.235 69.38V70.4H157.535V69.38H145.235ZM150.725 70.01V75.17H151.955V70.01H150.725ZM151.355 62.15C148.535 62.15 146.615 63.305 146.615 65.12C146.615 66.935 148.535 68.09 151.355 68.09C154.19 68.09 156.095 66.935 156.095 65.12C156.095 63.305 154.19 62.15 151.355 62.15ZM151.355 63.155C153.425 63.155 154.82 63.92 154.82 65.12C154.82 66.32 153.425 67.085 151.355 67.085C149.285 67.085 147.875 66.32 147.875 65.12C147.875 63.92 149.285 63.155 151.355 63.155ZM169.354 61.61V75.17H170.554V61.61H169.354ZM167.059 67.04V68.075H169.669V67.04H167.059ZM166.279 61.91V74.48H167.449V61.91H166.279ZM159.529 70.79V71.825H160.414C162.454 71.825 163.819 71.765 165.439 71.42L165.319 70.385C163.744 70.715 162.394 70.79 160.414 70.79H159.529ZM159.529 63.26V71.255H160.759V64.28H164.569V63.26H159.529Z" fill="white"/>
</svg>
