<svg width="290" height="290" viewBox="0 0 290 290" fill="none" xmlns="http://www.w3.org/2000/svg">
<path fill-rule="evenodd" clip-rule="evenodd" d="M9.99162 92C3.5419 108.417 0 126.295 0 145C0 225.081 64.9187 290 145 290C225.081 290 290 225.081 290 145C290 126.295 286.458 108.417 280.008 92H9.99162Z" fill="#FCF9F9"/>
<path fill-rule="evenodd" clip-rule="evenodd" d="M280.009 92H9.99219C31.1551 38.1334 83.6246 0 145.001 0C206.377 0 258.846 38.1334 280.009 92Z" fill="#E56969"/>
<path d="M104.189 47.67C103.439 47.67 102.899 47.07 102.899 46.035C102.899 45 103.439 44.385 104.189 44.385C104.939 44.385 105.479 45 105.479 46.035C105.479 47.07 104.939 47.67 104.189 47.67ZM104.189 42.735C102.419 42.735 101.159 44.1 101.159 46.035C101.159 47.955 102.419 49.32 104.189 49.32C105.959 49.32 107.219 47.955 107.219 46.035C107.219 44.1 105.959 42.735 104.189 42.735ZM105.164 38.85H103.214V40.56H100.859V42.135H107.459V40.56H105.164V38.85ZM110.849 38.46V44.1H109.799V38.73H107.954V51.705H109.799V45.69H110.849V52.275H112.724V38.46H110.849ZM118.123 41.34H119.668V47.43C119.143 47.445 118.633 47.475 118.123 47.475V41.34ZM121.573 41.34H122.758V39.75H115.003V41.34H116.203V47.52C115.663 47.52 115.138 47.52 114.643 47.52L114.853 49.14C117.328 49.125 120.508 49.065 123.418 48.57L123.298 47.145C122.728 47.22 122.158 47.28 121.573 47.31V41.34ZM124.183 38.49V52.305H126.178V38.49H124.183ZM141.777 38.475V42H139.077C139.167 41.31 139.212 40.62 139.212 39.9H132.717V41.475H137.202C136.887 44.52 135.297 46.68 132.057 48.375L133.077 49.905C136.272 48.3 137.982 46.14 138.732 43.59H141.777V45.78H138.522V47.37H141.777V52.275H143.757V38.475H141.777ZM152.246 40.05C154.256 40.05 155.201 40.335 155.201 40.95C155.201 41.595 154.256 41.865 152.246 41.865C150.251 41.865 149.306 41.595 149.306 40.95C149.306 40.335 150.251 40.05 152.246 40.05ZM152.246 43.305C155.411 43.305 157.256 42.48 157.256 40.95C157.256 39.435 155.411 38.595 152.246 38.595C149.096 38.595 147.251 39.435 147.251 40.95C147.251 42.48 149.096 43.305 152.246 43.305ZM158.486 45.465V43.905H146.006V45.465H151.241V46.365H147.431V47.82H155.021V48.555H147.446V52.185H157.331V50.7H149.411V49.92H156.971V46.365H153.221V45.465H158.486ZM164.875 44.295H162.16V42.585H164.875V44.295ZM166.825 39.36H164.875V41.07H162.16V39.36H160.21V45.84H166.825V39.36ZM166.15 50.775C164.395 50.775 163.45 50.4 163.45 49.62C163.45 48.84 164.395 48.465 166.15 48.465C167.92 48.465 168.865 48.84 168.865 49.62C168.865 50.4 167.92 50.775 166.15 50.775ZM166.15 46.92C163.285 46.92 161.485 47.925 161.485 49.62C161.485 51.3 163.285 52.32 166.15 52.32C169.03 52.32 170.83 51.3 170.83 49.62C170.83 47.925 169.03 46.92 166.15 46.92ZM170.68 41.7V38.49H168.7V46.62H170.68V43.32H172.51V41.7H170.68ZM181.733 39.69H178.658V38.4H176.663V39.69H173.603V41.25H181.733V39.69ZM176.168 44.22C176.168 43.53 176.768 43.185 177.668 43.185C178.553 43.185 179.168 43.53 179.168 44.22C179.168 44.925 178.553 45.27 177.668 45.27C176.768 45.27 176.168 44.925 176.168 44.22ZM181.058 44.22C181.058 42.72 179.663 41.685 177.668 41.685C175.688 41.685 174.278 42.72 174.278 44.22C174.278 45.735 175.688 46.77 177.668 46.77C179.663 46.77 181.058 45.735 181.058 44.22ZM175.268 49.29H182.498V52.305H184.478V47.7H175.268V49.29ZM186.308 42.03H184.478V38.475H182.498V47.13H184.478V43.665H186.308V42.03ZM189.833 40.3359L189.621 47.7993H187.988L187.775 40.3359H189.833ZM187.717 50.0991C187.717 49.811 187.814 49.5693 188.01 49.374C188.21 49.1738 188.479 49.0737 188.815 49.0737C189.152 49.0737 189.418 49.1738 189.614 49.374C189.814 49.5693 189.914 49.811 189.914 50.0991C189.914 50.3823 189.814 50.6216 189.614 50.8169C189.418 51.0122 189.152 51.1099 188.815 51.1099C188.479 51.1099 188.21 51.0122 188.01 50.8169C187.814 50.6216 187.717 50.3823 187.717 50.0991ZM118.652 72.395V73.43H130.937V72.395H118.652ZM119.717 62.96V63.98H129.782V62.96H119.717ZM119.747 68.69V69.71H129.767V68.69H119.747ZM121.832 63.905V68.795H123.077V63.905H121.832ZM126.452 63.905V68.795H127.682V63.905H126.452ZM132.451 72.47V73.505H144.736V72.47H132.451ZM137.941 69.56V72.905H139.186V69.56H137.941ZM133.936 62.615V63.62H141.991V65.72H133.981V69.44H135.211V66.725H143.221V62.615H133.936ZM133.981 68.915V69.935H143.536V68.915H133.981ZM146.25 72.41V73.445H158.535V72.41H146.25ZM151.74 68.9V72.695H152.985V68.9H151.74ZM147.675 62.735V69.125H157.035V62.735H147.675ZM155.835 63.74V68.12H148.89V63.74H155.835ZM167.234 63.605V64.64H170.279V63.605H167.234ZM167.234 66.395V67.415H170.279V66.395H167.234ZM163.439 62.375V64.1C163.439 66.23 162.089 68.165 160.064 68.945L160.724 69.935C162.989 69.02 164.444 66.755 164.444 64.1V62.375H163.439ZM163.664 62.375V64.1C163.664 66.62 165.119 68.81 167.264 69.71L167.954 68.735C165.989 67.955 164.684 66.08 164.684 64.1V62.375H163.664ZM169.949 61.625V71.735H171.194V61.625H169.949ZM162.479 73.85V74.87H171.524V73.85H162.479ZM162.479 70.715V74.405H163.724V70.715H162.479Z" fill="white"/>
</svg>
