<svg width="290" height="290" viewBox="0 0 290 290" fill="none" xmlns="http://www.w3.org/2000/svg">
<path fill-rule="evenodd" clip-rule="evenodd" d="M9.99162 92C3.5419 108.417 0 126.295 0 145C0 225.081 64.9187 290 145 290C225.081 290 290 225.081 290 145C290 126.295 286.458 108.417 280.008 92H9.99162Z" fill="#FCF9F9"/>
<path fill-rule="evenodd" clip-rule="evenodd" d="M280.009 92H9.99219C31.1551 38.1334 83.6246 0 145.001 0C206.377 0 258.846 38.1334 280.009 92Z" fill="#E66969"/>
<path d="M78.1837 47.82H76.1737V48C76.1737 49.26 74.8687 50.46 71.7637 50.745L72.4237 52.245C74.7187 51.99 76.3387 51.225 77.1787 50.085C78.0187 51.225 79.6387 51.99 81.9337 52.245L82.5937 50.745C79.4887 50.46 78.1837 49.26 78.1837 48V47.82ZM78.1537 45.705V44.775H82.1587V43.275H74.4187V42.48H81.8887V38.805H72.4387V40.305H79.9387V41.085H72.4687V44.775H76.1737V45.705H70.9087V47.265H83.4187V45.705H78.1537ZM87.0625 41.61H90.3775V40.035H85.1125V49.215H86.0575C88.0825 49.215 89.4475 49.155 90.9925 48.855L90.8275 47.235C89.6125 47.475 88.5025 47.565 87.0625 47.595V41.61ZM91.8325 43.515H89.4325V45.12H91.8325V51.675H93.6775V38.73H91.8325V43.515ZM94.6975 38.46V52.275H96.5725V38.46H94.6975ZM105.706 44.865V46.065H108.151V46.47H110.131V38.475H108.151V44.865H105.706ZM102.901 39.975C103.891 39.975 104.506 40.23 104.506 40.755C104.506 41.265 103.891 41.52 102.901 41.52C101.911 41.52 101.281 41.265 101.281 40.755C101.281 40.23 101.911 39.975 102.901 39.975ZM102.901 42.795C104.956 42.795 106.351 42 106.351 40.755C106.351 39.48 104.956 38.685 102.901 38.685C100.831 38.685 99.4513 39.48 99.4513 40.755C99.4513 42 100.831 42.795 102.901 42.795ZM101.851 46.485H103.831V44.595C105.046 44.535 106.261 44.43 107.461 44.265L107.341 43.035C104.446 43.35 101.161 43.35 98.5213 43.35L98.7163 44.7C99.6913 44.7 100.756 44.7 101.851 44.685V46.485ZM102.451 50.835V50.13H110.131V46.89H100.486V48.225H108.181V48.885H100.501V52.185H110.446V50.835H102.451ZM123.48 44.85H115.74V41.22H123.375V39.615H113.76V46.425H123.48V44.85ZM112.305 49.02V50.64H124.815V49.02H112.305ZM137.234 42.21H129.629V38.97H127.649V43.785H137.234V42.21ZM129.509 47.88H127.514V52.005H137.309V50.415H129.509V47.88ZM126.104 45.195V46.785H138.614V45.195H126.104ZM154.543 47.385C155.008 44.595 155.008 42.69 155.008 40.995V39.66H144.853V41.235H153.028C153.028 42.825 153.013 44.685 152.563 47.19L154.543 47.385ZM151.618 49.035V44.67H149.683V49.035H148.213V44.67H146.263V49.035H143.638V50.625H156.148V49.035H151.618ZM158.817 49.395H166.437V52.305H168.417V47.82H158.817V49.395ZM160.992 41.535H166.377V42.615H160.992V41.535ZM164.652 45.3V44.16H168.342V38.835H166.377V40.05H160.992V38.835H159.027V44.16H162.672V45.3H157.437V46.875H169.932V45.3H164.652ZM180.701 38.46V52.32H182.681V38.46H180.701ZM175.256 39.435C173.171 39.435 171.626 41.325 171.626 44.355C171.626 47.4 173.171 49.305 175.256 49.305C177.341 49.305 178.886 47.4 178.886 44.355C178.886 41.325 177.341 39.435 175.256 39.435ZM175.256 41.22C176.276 41.22 176.981 42.315 176.981 44.355C176.981 46.41 176.276 47.505 175.256 47.505C174.236 47.505 173.531 46.41 173.531 44.355C173.531 42.315 174.236 41.22 175.256 41.22ZM201.28 45.405V43.83H199.54C199.81 42.36 199.81 41.205 199.81 40.17V39.06H190.315V40.65H197.86C197.86 41.565 197.815 42.57 197.56 43.83H188.77V45.405H194.02V47.355H190.03V48.915H197.845V52.29H199.84V47.355H196V45.405H201.28ZM211.599 40.71H204.129V44.01H213.789V42.675H206.079V41.955H213.549V38.7H204.099V40.035H211.599V40.71ZM215.079 46.065V44.64H202.569V46.065H207.834V46.815H203.979V48.15H211.629V48.855H203.994V52.185H213.969V50.865H205.959V50.1H213.594V46.815H209.814V46.065H215.079ZM218.799 40.3359L218.586 47.7993H216.953L216.741 40.3359H218.799ZM216.682 50.0991C216.682 49.811 216.78 49.5693 216.975 49.374C217.175 49.1738 217.444 49.0737 217.781 49.0737C218.118 49.0737 218.384 49.1738 218.579 49.374C218.779 49.5693 218.879 49.811 218.879 50.0991C218.879 50.3823 218.779 50.6216 218.579 50.8169C218.384 51.0122 218.118 51.1099 217.781 51.1099C217.444 51.1099 217.175 51.0122 216.975 50.8169C216.78 50.6216 216.682 50.3823 216.682 50.0991ZM128.052 61.625V71.96H129.297V61.625H128.052ZM125.757 65.21V66.23H128.577V65.21H125.757ZM125.757 68.075V69.08H128.577V68.075H125.757ZM118.167 63.26V64.265H125.757V63.26H118.167ZM122.007 65.015C120.192 65.015 118.932 66.05 118.932 67.61C118.932 69.155 120.192 70.205 122.007 70.205C123.807 70.205 125.067 69.155 125.067 67.61C125.067 66.05 123.807 65.015 122.007 65.015ZM122.007 65.99C123.132 65.99 123.897 66.65 123.897 67.61C123.897 68.57 123.132 69.215 122.007 69.215C120.882 69.215 120.117 68.57 120.117 67.61C120.117 66.65 120.882 65.99 122.007 65.99ZM121.392 61.595V63.905H122.637V61.595H121.392ZM120.582 73.85V74.87H129.627V73.85H120.582ZM120.582 71.075V74.345H121.827V71.075H120.582ZM135.281 63.065V64.16C135.281 66.095 133.931 67.85 131.891 68.57L132.521 69.56C134.801 68.735 136.301 66.65 136.301 64.16V63.065H135.281ZM135.506 63.065V64.145C135.506 66.455 136.946 68.39 139.211 69.14L139.811 68.165C137.816 67.505 136.526 65.915 136.526 64.145V63.065H135.506ZM132.266 62.615V63.635H139.511V62.615H132.266ZM141.221 61.61V69.785H142.466V61.61H141.221ZM142.121 65.045V66.095H144.476V65.045H142.121ZM138.146 70.145C135.386 70.145 133.691 71.06 133.691 72.635C133.691 74.225 135.386 75.14 138.146 75.14C140.906 75.14 142.601 74.225 142.601 72.635C142.601 71.06 140.906 70.145 138.146 70.145ZM138.146 71.15C140.156 71.15 141.386 71.69 141.386 72.635C141.386 73.595 140.156 74.165 138.146 74.165C136.136 74.165 134.906 73.595 134.906 72.635C134.906 71.69 136.136 71.15 138.146 71.15ZM145.735 69.38V70.4H158.035V69.38H145.735ZM151.225 70.01V75.17H152.455V70.01H151.225ZM151.855 62.15C149.035 62.15 147.115 63.305 147.115 65.12C147.115 66.935 149.035 68.09 151.855 68.09C154.69 68.09 156.595 66.935 156.595 65.12C156.595 63.305 154.69 62.15 151.855 62.15ZM151.855 63.155C153.925 63.155 155.32 63.92 155.32 65.12C155.32 66.32 153.925 67.085 151.855 67.085C149.785 67.085 148.375 66.32 148.375 65.12C148.375 63.92 149.785 63.155 151.855 63.155ZM169.854 61.61V75.17H171.054V61.61H169.854ZM167.559 67.04V68.075H170.169V67.04H167.559ZM166.779 61.91V74.48H167.949V61.91H166.779ZM160.029 70.79V71.825H160.914C162.954 71.825 164.319 71.765 165.939 71.42L165.819 70.385C164.244 70.715 162.894 70.79 160.914 70.79H160.029ZM160.029 63.26V71.255H161.259V64.28H165.069V63.26H160.029Z" fill="white"/>
</svg>
