<svg width="290" height="290" viewBox="0 0 290 290" fill="none" xmlns="http://www.w3.org/2000/svg">
<path fill-rule="evenodd" clip-rule="evenodd" d="M9.99162 92C3.5419 108.417 0 126.295 0 145C0 225.081 64.9187 290 145 290C225.081 290 290 225.081 290 145C290 126.295 286.458 108.417 280.008 92H9.99162Z" fill="#FCF9F9"/>
<path fill-rule="evenodd" clip-rule="evenodd" d="M280.009 92H9.99219C31.1551 38.1334 83.6246 0 145.001 0C206.377 0 258.846 38.1334 280.009 92Z" fill="#ED9292"/>
<path d="M96.357 47.82H94.347V48C94.347 49.26 93.042 50.46 89.937 50.745L90.597 52.245C92.892 51.99 94.512 51.225 95.352 50.085C96.192 51.225 97.812 51.99 100.107 52.245L100.767 50.745C97.662 50.46 96.357 49.26 96.357 48V47.82ZM96.327 45.705V44.775H100.332V43.275H92.592V42.48H100.062V38.805H90.612V40.305H98.112V41.085H90.642V44.775H94.347V45.705H89.082V47.265H101.592V45.705H96.327ZM105.236 41.61H108.551V40.035H103.286V49.215H104.231C106.256 49.215 107.621 49.155 109.166 48.855L109.001 47.235C107.786 47.475 106.676 47.565 105.236 47.595V41.61ZM110.006 43.515H107.606V45.12H110.006V51.675H111.851V38.73H110.006V43.515ZM112.871 38.46V52.275H114.746V38.46H112.871ZM123.88 44.865V46.065H126.325V46.47H128.305V38.475H126.325V44.865H123.88ZM121.075 39.975C122.065 39.975 122.68 40.23 122.68 40.755C122.68 41.265 122.065 41.52 121.075 41.52C120.085 41.52 119.455 41.265 119.455 40.755C119.455 40.23 120.085 39.975 121.075 39.975ZM121.075 42.795C123.13 42.795 124.525 42 124.525 40.755C124.525 39.48 123.13 38.685 121.075 38.685C119.005 38.685 117.625 39.48 117.625 40.755C117.625 42 119.005 42.795 121.075 42.795ZM120.025 46.485H122.005V44.595C123.22 44.535 124.435 44.43 125.635 44.265L125.515 43.035C122.62 43.35 119.335 43.35 116.695 43.35L116.89 44.7C117.865 44.7 118.93 44.7 120.025 44.685V46.485ZM120.625 50.835V50.13H128.305V46.89H118.66V48.225H126.355V48.885H118.675V52.185H128.62V50.835H120.625ZM141.653 44.85H133.913V41.22H141.548V39.615H131.933V46.425H141.653V44.85ZM130.478 49.02V50.64H142.988V49.02H130.478ZM152.393 41.46H154.403V39.855H148.253V41.46H150.473V42.135C150.473 44.505 149.753 46.98 147.743 48.255L148.913 49.71C150.158 48.93 150.968 47.58 151.448 46.005C151.898 47.46 152.678 48.66 153.908 49.38L155.063 47.94C153.068 46.77 152.393 44.445 152.393 42.135V41.46ZM155.198 43.185H153.443V44.79H155.198V51.66H157.043V38.7H155.198V43.185ZM157.988 38.46V52.275H159.863V38.46H157.988ZM173.662 39.855H169.042V38.46H167.062V39.855H162.412V41.4H173.647L173.662 39.855ZM170.737 44.295C170.737 44.91 169.852 45.195 168.052 45.195C166.252 45.195 165.382 44.91 165.382 44.295C165.382 43.68 166.252 43.41 168.052 43.41C169.852 43.41 170.737 43.68 170.737 44.295ZM163.327 44.295C163.327 45.825 165.097 46.665 168.052 46.665C171.007 46.665 172.792 45.825 172.792 44.295C172.792 42.78 171.007 41.94 168.052 41.94C165.097 41.94 163.327 42.78 163.327 44.295ZM174.322 47.31H161.812V48.9H164.692V52.32H166.687V48.9H169.462V52.32H171.457V48.9H174.322V47.31ZM176.405 39.795V41.37H180.785C180.74 42.03 180.635 42.63 180.5 43.2L175.67 43.485L175.925 45.165L179.93 44.775C179.15 46.29 177.815 47.58 175.55 48.705L176.6 50.235C181.745 47.61 182.75 44.055 182.75 39.795H176.405ZM188.36 43.74H186.425V38.46H184.445V52.26H186.425V45.375H188.36V43.74ZM200.584 44.85H192.844V41.22H200.479V39.615H190.864V46.425H200.584V44.85ZM189.409 49.02V50.64H201.919V49.02H189.409ZM118.652 72.395V73.43H130.937V72.395H118.652ZM119.717 62.96V63.98H129.782V62.96H119.717ZM119.747 68.69V69.71H129.767V68.69H119.747ZM121.832 63.905V68.795H123.077V63.905H121.832ZM126.452 63.905V68.795H127.682V63.905H126.452ZM132.451 72.47V73.505H144.736V72.47H132.451ZM137.941 69.56V72.905H139.186V69.56H137.941ZM133.936 62.615V63.62H141.991V65.72H133.981V69.44H135.211V66.725H143.221V62.615H133.936ZM133.981 68.915V69.935H143.536V68.915H133.981ZM146.25 72.41V73.445H158.535V72.41H146.25ZM151.74 68.9V72.695H152.985V68.9H151.74ZM147.675 62.735V69.125H157.035V62.735H147.675ZM155.835 63.74V68.12H148.89V63.74H155.835ZM167.234 63.605V64.64H170.279V63.605H167.234ZM167.234 66.395V67.415H170.279V66.395H167.234ZM163.439 62.375V64.1C163.439 66.23 162.089 68.165 160.064 68.945L160.724 69.935C162.989 69.02 164.444 66.755 164.444 64.1V62.375H163.439ZM163.664 62.375V64.1C163.664 66.62 165.119 68.81 167.264 69.71L167.954 68.735C165.989 67.955 164.684 66.08 164.684 64.1V62.375H163.664ZM169.949 61.625V71.735H171.194V61.625H169.949ZM162.479 73.85V74.87H171.524V73.85H162.479ZM162.479 70.715V74.405H163.724V70.715H162.479Z" fill="white"/>
</svg>
