<svg width="290" height="290" viewBox="0 0 290 290" fill="none" xmlns="http://www.w3.org/2000/svg">
<path fill-rule="evenodd" clip-rule="evenodd" d="M9.99162 92C3.5419 108.417 0 126.295 0 145C0 225.081 64.9187 290 145 290C225.081 290 290 225.081 290 145C290 126.295 286.458 108.417 280.008 92H9.99162Z" fill="#FCF9F9"/>
<path fill-rule="evenodd" clip-rule="evenodd" d="M280.009 92H9.99219C31.1551 38.1334 83.6246 0 145.001 0C206.377 0 258.846 38.1334 280.009 92Z" fill="#ED9292"/>
<path d="M109.091 50.85C107.186 50.85 106.301 50.595 106.301 50.025C106.301 49.455 107.186 49.215 109.091 49.215C111.011 49.215 111.896 49.455 111.896 50.025C111.896 50.595 111.011 50.85 109.091 50.85ZM109.091 47.76C106.061 47.76 104.306 48.54 104.306 50.025C104.306 51.495 106.061 52.29 109.091 52.29C112.136 52.29 113.891 51.495 113.891 50.025C113.891 48.54 112.136 47.76 109.091 47.76ZM110.096 45.6V44.745H114.041V43.245H106.391V42.495H113.621V41.055H106.391V40.335H113.936V38.835H104.426V44.745H108.116V45.6H102.866V47.145H115.361V45.6H110.096ZM128.155 38.49H126.16V48.555H128.155V38.49ZM125.14 44.895C122.89 44.175 121.93 42.405 121.93 40.59V39.24H119.92V40.59C119.92 42.42 118.93 44.355 116.635 45.135L117.64 46.71C119.245 46.155 120.325 45.03 120.955 43.635C121.555 44.925 122.605 45.945 124.135 46.47L125.14 44.895ZM120.94 50.475V47.595H118.96V52.05H128.5V50.475H120.94ZM135.563 39.54H133.568V41.55C133.568 44.115 132.518 46.755 130.193 47.85L131.378 49.455C132.938 48.69 133.973 47.235 134.573 45.48C135.143 47.13 136.118 48.465 137.558 49.2L138.758 47.64C136.538 46.545 135.563 44.04 135.563 41.55V39.54ZM143.303 43.785H141.293V38.475H139.313V52.29H141.293V45.435H143.303V43.785ZM152.138 44.16H150.338V40.98H152.138V44.16ZM153.968 43.32H155.138V46.305H156.983V38.73H155.138V41.73H153.968V39.48H148.493V45.645H153.968V43.32ZM152.378 48.555H157.868V50.58H152.378V48.555ZM150.428 52.125H159.788V46.995H150.428V52.125ZM157.913 38.475V46.425H159.788V38.475H157.913ZM167.002 47.49H164.287V44.43H167.002V47.49ZM171.427 38.46V43.32H168.952V39.555H167.002V42.885H164.287V39.555H162.322V49.065H168.952V44.91H171.427V52.32H173.407V38.46H171.427ZM184.085 44.04C181.85 43.395 180.86 41.79 180.86 40.155V38.88H178.85V40.155C178.85 41.835 177.845 43.575 175.535 44.265L176.495 45.825C178.13 45.33 179.255 44.28 179.885 42.975C180.5 44.175 181.565 45.12 183.14 45.585L184.085 44.04ZM185.12 50.55H179.87V49.305H185.12V50.55ZM185.12 47.79H179.87V46.5H177.905V52.125H187.085V46.5H185.12V47.79ZM185.09 38.475V45.9H187.085V38.475H185.09ZM128.957 61.61V75.17H130.157V61.61H128.957ZM124.022 66.47V67.505H126.617V66.47H124.022ZM126.242 61.925V74.48H127.412V61.925H126.242ZM121.412 63.71V65.435C121.412 67.925 120.362 70.4 118.472 71.54L119.237 72.47C121.232 71.21 122.372 68.405 122.372 65.435V63.71H121.412ZM121.667 63.71V65.435C121.667 68.27 122.762 70.94 124.742 72.14L125.507 71.225C123.647 70.145 122.627 67.79 122.627 65.435V63.71H121.667ZM118.847 63.185V64.22H125.042V63.185H118.847ZM135.616 70.925V75.2H136.876V70.925H135.616ZM140.281 70.925V75.2H141.526V70.925H140.281ZM133.081 63.11V64.115H143.986V63.11H133.081ZM132.451 70.28V71.3H144.736V70.28H132.451ZM138.571 64.88C135.796 64.88 134.161 65.69 134.161 67.115C134.161 68.555 135.796 69.365 138.571 69.365C141.331 69.365 142.966 68.555 142.966 67.115C142.966 65.69 141.331 64.88 138.571 64.88ZM138.571 65.825C140.551 65.825 141.691 66.29 141.691 67.115C141.691 67.955 140.551 68.42 138.571 68.42C136.591 68.42 135.451 67.955 135.451 67.115C135.451 66.29 136.591 65.825 138.571 65.825ZM137.941 61.535V63.83H139.186V61.535H137.941ZM155.52 61.565V69.05H156.765V61.565H155.52ZM156.24 64.82V65.87H158.775V64.82H156.24ZM148.155 69.74V70.685H155.55V71.87H148.185V74.42H149.415V72.77H156.765V69.74H148.155ZM148.185 74.06V75.02H157.26V74.06H148.185ZM146.28 62.825V63.8H154.29V62.825H146.28ZM150.285 64.4C148.305 64.4 147.03 65.255 147.03 66.635C147.03 68 148.305 68.84 150.285 68.84C152.235 68.84 153.525 68 153.525 66.635C153.525 65.255 152.235 64.4 150.285 64.4ZM150.285 65.315C151.53 65.315 152.34 65.825 152.34 66.635C152.34 67.43 151.53 67.94 150.285 67.94C149.025 67.94 148.215 67.43 148.215 66.635C148.215 65.825 149.025 65.315 150.285 65.315ZM149.655 61.46V63.5H150.9V61.46H149.655ZM169.904 61.625V71.525H171.164V61.625H169.904ZM162.449 73.85V74.87H171.569V73.85H162.449ZM162.449 70.505V74.195H163.679V70.505H162.449ZM163.889 62.555C161.864 62.555 160.349 63.935 160.349 65.9C160.349 67.85 161.864 69.245 163.889 69.245C165.914 69.245 167.414 67.85 167.414 65.9C167.414 63.935 165.914 62.555 163.889 62.555ZM163.889 63.635C165.209 63.635 166.214 64.565 166.214 65.9C166.214 67.22 165.209 68.15 163.889 68.15C162.569 68.15 161.564 67.22 161.564 65.9C161.564 64.565 162.569 63.635 163.889 63.635Z" fill="white"/>
</svg>
