<svg width="290" height="290" viewBox="0 0 290 290" fill="none" xmlns="http://www.w3.org/2000/svg">
<path fill-rule="evenodd" clip-rule="evenodd" d="M9.99162 92C3.5419 108.417 0 126.295 0 145C0 225.081 64.9187 290 145 290C225.081 290 290 225.081 290 145C290 126.295 286.458 108.417 280.008 92H9.99162Z" fill="#FCF9F9"/>
<path fill-rule="evenodd" clip-rule="evenodd" d="M280.009 92H9.99219C31.1551 38.1334 83.6246 0 145.001 0C206.377 0 258.846 38.1334 280.009 92Z" fill="#ED9292"/>
<path d="M91.397 47.67C90.647 47.67 90.107 47.07 90.107 46.035C90.107 45 90.647 44.385 91.397 44.385C92.147 44.385 92.687 45 92.687 46.035C92.687 47.07 92.147 47.67 91.397 47.67ZM91.397 42.735C89.627 42.735 88.367 44.1 88.367 46.035C88.367 47.955 89.627 49.32 91.397 49.32C93.167 49.32 94.427 47.955 94.427 46.035C94.427 44.1 93.167 42.735 91.397 42.735ZM92.372 38.85H90.422V40.56H88.067V42.135H94.667V40.56H92.372V38.85ZM98.057 38.46V44.1H97.007V38.73H95.162V51.705H97.007V45.69H98.057V52.275H99.932V38.46H98.057ZM105.331 41.34H106.876V47.43C106.351 47.445 105.841 47.475 105.331 47.475V41.34ZM108.781 41.34H109.966V39.75H102.211V41.34H103.411V47.52C102.871 47.52 102.346 47.52 101.851 47.52L102.061 49.14C104.536 49.125 107.716 49.065 110.626 48.57L110.506 47.145C109.936 47.22 109.366 47.28 108.781 47.31V41.34ZM111.391 38.49V52.305H113.386V38.49H111.391ZM120.495 41.19H123.315V45.105H120.495V41.19ZM122.895 49.14V46.68H127.11V45.105H125.28V41.19H127.155V39.615H116.655V41.19H118.53V45.105H116.73V46.68H120.915V49.14H115.68V50.73H128.19V49.14H122.895ZM140.953 38.49H138.958V48.405H140.953V38.49ZM131.608 42.87C131.608 41.73 132.418 41.07 133.438 41.07C134.473 41.07 135.253 41.73 135.253 42.87C135.253 43.98 134.473 44.655 133.438 44.655C132.418 44.655 131.608 43.98 131.608 42.87ZM137.188 42.87C137.188 40.83 135.553 39.36 133.438 39.36C131.323 39.36 129.673 40.83 129.673 42.87C129.673 44.88 131.323 46.365 133.438 46.365C135.553 46.365 137.188 44.88 137.188 42.87ZM133.738 50.475V47.43H131.758V52.05H141.298V50.475H133.738ZM154.452 45.6H146.757V44.055H154.032V42.525H146.757V41.07H154.347V39.48H144.747V47.16H154.452V45.6ZM143.277 49.095V50.7H155.787V49.095H143.277ZM164.937 44.16H163.137V40.98H164.937V44.16ZM166.767 43.32H167.937V46.305H169.782V38.73H167.937V41.73H166.767V39.48H161.292V45.645H166.767V43.32ZM165.177 48.555H170.667V50.58H165.177V48.555ZM163.227 52.125H172.587V46.995H163.227V52.125ZM170.712 38.475V46.425H172.587V38.475H170.712ZM179.8 47.49H177.085V44.43H179.8V47.49ZM184.225 38.46V43.32H181.75V39.555H179.8V42.885H177.085V39.555H175.12V49.065H181.75V44.91H184.225V52.32H186.205V38.46H184.225ZM196.884 44.04C194.649 43.395 193.659 41.79 193.659 40.155V38.88H191.649V40.155C191.649 41.835 190.644 43.575 188.334 44.265L189.294 45.825C190.929 45.33 192.054 44.28 192.684 42.975C193.299 44.175 194.364 45.12 195.939 45.585L196.884 44.04ZM197.919 50.55H192.669V49.305H197.919V50.55ZM197.919 47.79H192.669V46.5H190.704V52.125H199.884V46.5H197.919V47.79ZM197.889 38.475V45.9H199.884V38.475H197.889ZM120.937 62.315V63.695C120.937 65.765 119.617 67.595 117.577 68.345L118.237 69.35C120.502 68.465 121.972 66.305 121.972 63.695V62.315H120.937ZM121.162 62.315V63.785C121.162 66.14 122.647 68.15 124.822 68.96L125.482 67.985C123.532 67.31 122.182 65.615 122.182 63.785V62.315H121.162ZM126.922 61.61V69.83H128.167V61.61H126.922ZM127.822 65.105V66.155H130.177V65.105H127.822ZM123.847 70.205C121.072 70.205 119.392 71.12 119.392 72.68C119.392 74.24 121.072 75.14 123.847 75.14C126.622 75.14 128.302 74.24 128.302 72.68C128.302 71.12 126.622 70.205 123.847 70.205ZM123.847 71.195C125.857 71.195 127.087 71.735 127.087 72.68C127.087 73.625 125.857 74.165 123.847 74.165C121.837 74.165 120.607 73.625 120.607 72.68C120.607 71.735 121.837 71.195 123.847 71.195ZM135.021 62.78V65.21C135.021 67.775 133.386 70.37 131.376 71.33L132.141 72.35C134.361 71.225 136.041 68.33 136.041 65.21V62.78H135.021ZM135.231 62.78V65.21C135.231 68.225 136.926 71.015 139.131 72.095L139.881 71.105C137.871 70.175 136.251 67.685 136.251 65.21V62.78H135.231ZM141.291 61.595V75.185H142.536V61.595H141.291ZM145.235 69.38V70.4H157.535V69.38H145.235ZM150.725 70.01V75.17H151.955V70.01H150.725ZM151.355 62.15C148.535 62.15 146.615 63.305 146.615 65.12C146.615 66.935 148.535 68.09 151.355 68.09C154.19 68.09 156.095 66.935 156.095 65.12C156.095 63.305 154.19 62.15 151.355 62.15ZM151.355 63.155C153.425 63.155 154.82 63.92 154.82 65.12C154.82 66.32 153.425 67.085 151.355 67.085C149.285 67.085 147.875 66.32 147.875 65.12C147.875 63.92 149.285 63.155 151.355 63.155ZM169.354 61.61V75.17H170.554V61.61H169.354ZM167.059 67.04V68.075H169.669V67.04H167.059ZM166.279 61.91V74.48H167.449V61.91H166.279ZM159.529 70.79V71.825H160.414C162.454 71.825 163.819 71.765 165.439 71.42L165.319 70.385C163.744 70.715 162.394 70.79 160.414 70.79H159.529ZM159.529 63.26V71.255H160.759V64.28H164.569V63.26H159.529Z" fill="white"/>
</svg>
