<svg width="290" height="290" viewBox="0 0 290 290" fill="none" xmlns="http://www.w3.org/2000/svg">
<path fill-rule="evenodd" clip-rule="evenodd" d="M9.99162 92C3.5419 108.417 0 126.295 0 145C0 225.081 64.9187 290 145 290C225.081 290 290 225.081 290 145C290 126.295 286.458 108.417 280.008 92H9.99162Z" fill="#FCF9F9"/>
<path fill-rule="evenodd" clip-rule="evenodd" d="M280.009 92H9.99219C31.1551 38.1334 83.6246 0 145.001 0C206.377 0 258.846 38.1334 280.009 92Z" fill="#ED9292"/>
<path d="M97.4889 49.005H99.4689V38.475H97.4889V41.91H95.6889V43.485H97.4889V44.865H95.6889V46.44H97.4889V49.005ZM95.5389 39.93H92.8389V38.43H90.8589V39.93H87.9639V41.475H95.5389V39.93ZM90.4689 44.67C90.4689 43.92 91.0389 43.485 91.8489 43.485C92.6439 43.485 93.2139 43.92 93.2139 44.67C93.2139 45.45 92.6439 45.87 91.8489 45.87C91.0389 45.87 90.4689 45.45 90.4689 44.67ZM95.0739 44.67C95.0739 43.08 93.7239 41.97 91.8489 41.97C89.9589 41.97 88.6089 43.08 88.6089 44.67C88.6089 46.275 89.9589 47.4 91.8489 47.4C93.7239 47.4 95.0739 46.275 95.0739 44.67ZM92.3289 50.475V48.15H90.3489V52.05H99.7689V50.475H92.3289ZM104.058 41.67H107.223V40.065H102.108V49.185H103.068C104.838 49.185 106.308 49.125 107.988 48.81L107.838 47.205C106.518 47.445 105.348 47.52 104.058 47.55V41.67ZM111.693 38.46V43.785H110.448V38.73H108.603V51.645H110.448V45.375H111.693V52.29H113.568V38.46H111.693ZM116.312 39.795V41.37H120.692C120.647 42.03 120.542 42.63 120.407 43.2L115.577 43.485L115.832 45.165L119.837 44.775C119.057 46.29 117.722 47.58 115.457 48.705L116.507 50.235C121.652 47.61 122.657 44.055 122.657 39.795H116.312ZM128.267 43.74H126.332V38.46H124.352V52.26H126.332V45.375H128.267V43.74ZM140.49 44.85H132.75V41.22H140.385V39.615H130.77V46.425H140.49V44.85ZM129.315 49.02V50.64H141.825V49.02H129.315ZM148.102 40.3359H149.845L152.76 48.3633L155.667 40.3359H157.418L153.456 51H152.057L148.102 40.3359ZM147.223 40.3359H148.929L149.237 47.7114V51H147.223V40.3359ZM156.583 40.3359H158.297V51H156.283V47.7114L156.583 40.3359ZM164.79 41.19H167.61V45.105H164.79V41.19ZM167.19 49.14V46.68H171.405V45.105H169.575V41.19H171.45V39.615H160.95V41.19H162.825V45.105H161.025V46.68H165.21V49.14H159.975V50.73H172.485V49.14H167.19ZM185.248 38.49H183.253V48.405H185.248V38.49ZM175.903 42.87C175.903 41.73 176.713 41.07 177.733 41.07C178.768 41.07 179.548 41.73 179.548 42.87C179.548 43.98 178.768 44.655 177.733 44.655C176.713 44.655 175.903 43.98 175.903 42.87ZM181.483 42.87C181.483 40.83 179.848 39.36 177.733 39.36C175.618 39.36 173.968 40.83 173.968 42.87C173.968 44.88 175.618 46.365 177.733 46.365C179.848 46.365 181.483 44.88 181.483 42.87ZM178.033 50.475V47.43H176.053V52.05H185.593V50.475H178.033ZM198.747 45.6H191.052V44.055H198.327V42.525H191.052V41.07H198.642V39.48H189.042V47.16H198.747V45.6ZM187.572 49.095V50.7H200.082V49.095H187.572ZM117.152 72.395V73.43H129.437V72.395H117.152ZM118.217 62.96V63.98H128.282V62.96H118.217ZM118.247 68.69V69.71H128.267V68.69H118.247ZM120.332 63.905V68.795H121.577V63.905H120.332ZM124.952 63.905V68.795H126.182V63.905H124.952ZM130.951 72.47V73.505H143.236V72.47H130.951ZM136.441 69.56V72.905H137.686V69.56H136.441ZM132.436 62.615V63.62H140.491V65.72H132.481V69.44H133.711V66.725H141.721V62.615H132.436ZM132.481 68.915V69.935H142.036V68.915H132.481ZM144.75 72.41V73.445H157.035V72.41H144.75ZM150.24 68.9V72.695H151.485V68.9H150.24ZM146.175 62.735V69.125H155.535V62.735H146.175ZM154.335 63.74V68.12H147.39V63.74H154.335ZM165.734 63.605V64.64H168.779V63.605H165.734ZM165.734 66.395V67.415H168.779V66.395H165.734ZM161.939 62.375V64.1C161.939 66.23 160.589 68.165 158.564 68.945L159.224 69.935C161.489 69.02 162.944 66.755 162.944 64.1V62.375H161.939ZM162.164 62.375V64.1C162.164 66.62 163.619 68.81 165.764 69.71L166.454 68.735C164.489 67.955 163.184 66.08 163.184 64.1V62.375H162.164ZM168.449 61.625V71.735H169.694V61.625H168.449ZM160.979 73.85V74.87H170.024V73.85H160.979ZM160.979 70.715V74.405H162.224V70.715H160.979Z" fill="white"/>
</svg>
