<svg width="290" height="290" viewBox="0 0 290 290" fill="none" xmlns="http://www.w3.org/2000/svg">
<path fill-rule="evenodd" clip-rule="evenodd" d="M9.99162 92C3.5419 108.417 0 126.295 0 145C0 225.081 64.9187 290 145 290C225.081 290 290 225.081 290 145C290 126.295 286.458 108.417 280.008 92H9.99162Z" fill="#FCF9F9"/>
<path fill-rule="evenodd" clip-rule="evenodd" d="M280.009 92H9.99219C31.1551 38.1334 83.6246 0 145.001 0C206.377 0 258.846 38.1334 280.009 92Z" fill="#E56969"/>
<path d="M63.6218 39.27V40.845H68.0018C67.7168 42.66 66.0368 44.175 62.9618 44.94L63.7418 46.5C67.8368 45.435 70.1618 42.945 70.1618 39.27H63.6218ZM66.9668 48.285H72.0368V50.58H66.9668V48.285ZM65.0318 52.125H73.9868V46.725H65.0318V52.125ZM75.8168 41.475H73.9868V38.475H72.0068V46.17H73.9868V43.095H75.8168V41.475ZM81.9956 39.54H80.0006V41.55C80.0006 44.115 78.9506 46.755 76.6256 47.85L77.8106 49.455C79.3706 48.69 80.4056 47.235 81.0056 45.48C81.5756 47.13 82.5506 48.465 83.9906 49.2L85.1906 47.64C82.9706 46.545 81.9956 44.04 81.9956 41.55V39.54ZM89.7356 43.785H87.7256V38.475H85.7456V52.29H87.7256V45.435H89.7356V43.785ZM98.8545 39.69H95.7645V38.37H93.7695V39.69H90.6945V41.235H98.8395L98.8545 39.69ZM93.2745 44.055C93.2745 43.395 93.8895 43.05 94.7745 43.05C95.6595 43.05 96.2745 43.395 96.2745 44.055C96.2745 44.715 95.6595 45.06 94.7745 45.06C93.8895 45.06 93.2745 44.715 93.2745 44.055ZM98.1645 44.055C98.1645 42.585 96.7695 41.61 94.7745 41.61C92.7795 41.61 91.3845 42.585 91.3845 44.055C91.3845 45.51 92.7795 46.5 94.7745 46.5C96.7695 46.5 98.1645 45.51 98.1645 44.055ZM99.6195 50.595H94.5645V49.635H99.6195V50.595ZM99.6195 48.135H94.5645V47.085H92.5995V52.14H101.584V47.085H99.6195V48.135ZM103.414 41.79H101.584V38.475H99.6045V46.56H101.584V43.41H103.414V41.79ZM107.193 39.78H105.228V48.885H106.458C108.558 48.885 110.853 48.735 113.208 48.24L112.998 46.59C110.973 46.995 109.008 47.145 107.193 47.19V39.78ZM114.063 38.46V52.275H116.043V38.46H114.063ZM120.812 41.355H125.282V39.75H118.832V49.005H120.017C122.417 49.005 124.307 48.93 126.392 48.555L126.197 46.92C124.412 47.22 122.777 47.325 120.812 47.355V41.355ZM131.132 43.575H129.122V38.475H127.142V52.32H129.122V45.21H131.132V43.575ZM134.156 49.2568L134.142 50.5972C134.142 51.1196 134.012 51.6494 133.753 52.1865C133.495 52.7236 133.16 53.168 132.75 53.5195L131.725 52.9556C131.856 52.7358 131.979 52.5137 132.091 52.2891C132.208 52.0645 132.301 51.8203 132.369 51.5566C132.442 51.2979 132.479 51.0073 132.479 50.6851V49.2568H134.156ZM147.486 39.855H142.866V38.46H140.886V39.855H136.236V41.4H147.471L147.486 39.855ZM144.561 44.295C144.561 44.91 143.676 45.195 141.876 45.195C140.076 45.195 139.206 44.91 139.206 44.295C139.206 43.68 140.076 43.41 141.876 43.41C143.676 43.41 144.561 43.68 144.561 44.295ZM137.151 44.295C137.151 45.825 138.921 46.665 141.876 46.665C144.831 46.665 146.616 45.825 146.616 44.295C146.616 42.78 144.831 41.94 141.876 41.94C138.921 41.94 137.151 42.78 137.151 44.295ZM148.146 47.31H135.636V48.9H138.516V52.32H140.511V48.9H143.286V52.32H145.281V48.9H148.146V47.31ZM150.065 39.885V41.49H154.58C154.22 44.55 152.51 46.74 149.3 48.39L150.41 49.905C155 47.58 156.575 44.025 156.575 39.885H150.065ZM162.185 43.74H160.25V38.46H158.27V52.26H160.25V45.375H162.185V43.74ZM172.804 42.06V43.32H170.344V42.06H172.804ZM168.409 44.385H165.784V42.675H168.409V44.385ZM170.344 44.895H172.804V46.725H174.784V38.475H172.804V40.485H170.344V39.3H168.409V41.16H165.784V39.315H163.819V45.96H170.344V44.895ZM170.104 50.79C168.304 50.79 167.359 50.415 167.359 49.635C167.359 48.855 168.304 48.48 170.104 48.48C171.919 48.48 172.864 48.855 172.864 49.635C172.864 50.415 171.919 50.79 170.104 50.79ZM170.104 46.98C167.179 46.98 165.379 47.955 165.379 49.635C165.379 51.315 167.179 52.305 170.104 52.305C173.044 52.305 174.844 51.315 174.844 49.635C174.844 47.955 173.044 46.98 170.104 46.98ZM182.118 39.54H180.123V41.55C180.123 44.115 179.073 46.755 176.748 47.85L177.933 49.455C179.493 48.69 180.528 47.235 181.128 45.48C181.698 47.13 182.673 48.465 184.113 49.2L185.313 47.64C183.093 46.545 182.118 44.04 182.118 41.55V39.54ZM189.858 43.785H187.848V38.475H185.868V52.29H187.848V45.435H189.858V43.785ZM203.642 43.17H197.957V40.71H203.642V43.17ZM205.577 39.15H196.007V44.73H205.577V39.15ZM207.077 46.2H194.567V47.775H199.787V52.29H201.767V47.775H207.077V46.2ZM213.481 47.055H215.896V49.155H213.481V47.055ZM217.846 49.155V47.055H219.781V45.465H211.771V43.95H219.466V39.36H209.791V40.935H217.516V42.405H209.806V47.055H211.531V49.155H208.351V50.775H220.876V49.155H217.846ZM224.596 40.3359L224.383 47.7993H222.75L222.538 40.3359H224.596ZM222.479 50.0991C222.479 49.811 222.577 49.5693 222.772 49.374C222.972 49.1738 223.241 49.0737 223.578 49.0737C223.915 49.0737 224.181 49.1738 224.376 49.374C224.576 49.5693 224.676 49.811 224.676 50.0991C224.676 50.3823 224.576 50.6216 224.376 50.8169C224.181 51.0122 223.915 51.1099 223.578 51.1099C223.241 51.1099 222.972 51.0122 222.772 50.8169C222.577 50.6216 222.479 50.3823 222.479 50.0991ZM117.137 69.485V70.505H129.437V69.485H117.137ZM122.627 70.1V75.17H123.857V70.1H122.627ZM118.697 62.36V67.655H127.847V62.36H118.697ZM126.632 63.365V66.65H119.927V63.365H126.632ZM134.371 69.56V72.89H135.601V69.56H134.371ZM138.706 69.53V72.875H139.921V69.53H138.706ZM130.951 72.47V73.505H143.236V72.47H130.951ZM132.436 62.615V63.62H140.491V65.72H132.481V69.44H133.711V66.71H141.721V62.615H132.436ZM132.481 68.885V69.905H142.036V68.885H132.481ZM155.07 61.61V75.17H156.27V61.61H155.07ZM152.58 61.895V74.495H153.75V61.895H152.58ZM150.705 66.2V67.205H153.12V66.2H150.705ZM150.6 69.305V70.31H153.03V69.305H150.6ZM144.72 63.935V64.94H151.395V63.935H144.72ZM148.035 65.87C146.4 65.87 145.2 67.145 145.2 69.005C145.2 70.85 146.4 72.14 148.035 72.14C149.685 72.14 150.885 70.85 150.885 69.005C150.885 67.145 149.685 65.87 148.035 65.87ZM148.035 66.92C149.055 66.92 149.775 67.775 149.775 69.005C149.775 70.22 149.055 71.075 148.035 71.075C147.03 71.075 146.295 70.22 146.295 69.005C146.295 67.775 147.03 66.92 148.035 66.92ZM147.435 61.955V64.505H148.665V61.955H147.435ZM159.119 68.09V69.125H159.989C162.164 69.125 163.454 69.065 165.014 68.765L164.894 67.745C163.379 68.045 162.119 68.09 159.989 68.09H159.119ZM159.119 62.6V68.645H160.319V63.62H164.369V62.6H159.119ZM159.944 65.3V66.275H164.204V65.3H159.944ZM168.779 61.61V69.83H169.964V61.61H168.779ZM166.589 65.15V66.17H169.154V65.15H166.589ZM165.794 61.865V69.755H166.964V61.865H165.794ZM160.874 70.55V71.57H168.734V75.17H169.964V70.55H160.874Z" fill="white"/>
</svg>
