<svg width="224" height="49" viewBox="0 0 224 49" fill="none" xmlns="http://www.w3.org/2000/svg">
<circle cx="80" cy="24.5" r="24.5" fill="#ED9292" fill-opacity="0.27"/>
<path d="M0 27H89L76.5 14.5" stroke="#ED9292"/>
<path d="M135.4 33.6L137.4 32.24L134 27.86C133.42 27.12 132.64 27.02 132 27.3C132.24 26.56 132.38 25.76 132.38 24.92V20.78H136.24V19.84H125.34V20.78H129.38V24.64C129.38 28.04 128.1 30.6 124.68 32.68L125.18 33.62C128.1 32.56 130.66 30.54 131.78 27.88L135.4 33.6ZM144 25.44H141.18V18.82H138.18V36.96H141.18V26.38H144V25.44ZM157.729 18.92H155.029V24.98H152.009V25.92H155.029V36.66H157.729V18.92ZM150.609 19.64H147.609V24.66C147.609 28.06 147.529 30.7 144.109 32.78L144.649 33.72C147.449 32.56 149.309 30.46 150.129 27.96L152.989 33.72L154.829 32.76L152.229 28.12C151.809 27.4 151.009 27.14 150.309 27.34C150.509 26.56 150.609 25.76 150.609 24.94V19.64ZM161.789 18.82H159.049V36.96H161.789V18.82ZM165.439 28.96C165.439 31.96 167.399 33.8 170.439 33.8C173.479 33.8 175.439 31.96 175.439 28.96C175.439 25.96 173.479 24.12 170.439 24.12C167.399 24.12 165.439 25.96 165.439 28.96ZM178.019 36.96H181.019V18.82H178.019V36.96ZM172.659 28.96C172.659 31.24 172.039 32.88 170.439 32.88C168.839 32.88 168.219 31.24 168.219 28.96C168.219 26.68 168.839 25.04 170.439 25.04C172.039 25.04 172.659 26.68 172.659 28.96ZM176.339 23.08V22.14H171.919V18.68H168.959V22.14H164.339V23.08H176.339ZM183.968 34.1V35.04H202.288V34.1H194.628V29.44H200.068V19.9H197.068V23.7H189.168V19.9H186.168V28.04C186.168 29 187.068 29.44 188.048 29.44H191.628V34.1H183.968ZM197.068 28.52H189.688C189.368 28.52 189.168 28.36 189.168 28.02V24.64H197.068V28.52ZM204.318 33.44C210.318 32.08 214.258 27.8 214.258 23.24V19.84H204.818V20.8H211.258V23.2C211.258 26.94 209.178 30.68 204.058 32.5L204.318 33.44ZM217.238 36.96H220.238V18.82H217.238V36.96Z" fill="#ED9292"/>
</svg>
